<svg viewBox="0 0 425.6 204.53" xmlns="http://www.w3.org/2000/svg"><g fill="#ff6d2d"><g transform="translate(-299.31 -409.55)"><path d="m724.32 518.14c0-9.07-.07-17.79-.29-26.41-.67-27.67 0-51.37-.35-79.1h-.06c0-.46 0-.93 0-1.33a.43.43 0 0 0 -.46-.34c-34.78-.19-71.73.55-107.76.29-36.68-.27-70.78-.23-106-.19-8.37 0-17.45-.16-26.41-.37-27.92-.68-51.93-.09-77.66-.45-9.08-.13-17.8-.15-26.42-.05-27.68.34-51.36-.64-79.1-.63a22.65 22.65 0 0 0 -.21 4.14h.07v2.1a.86.86 0 0 0 -.09.39h.09c-.09 25.41.57 47.76.07 73.58-.17 8.62-.22 17.34-.16 26.41.18 25.74-.58 49.75-.12 77.67.09 5.89.16 11.81.19 17.58h.14a9.89 9.89 0 0 0 .21 2.65c27.73 0 51.41-.88 79.1-.51 8.61.13 17.34.12 26.41 0 25.73-.32 49.74.3 77.66-.32 8.95-.2 18.05-.36 26.42-.33 35.22.1 69.31.19 106 0 34.23-.19 69.27.52 102.5.47h6.65c0-5.76 0-11.68.11-17.57.32-27.94-.58-51.94-.53-77.68zm-4.67-102.81c0 .6.05 1.22.06 1.83h-2.16c0-.63 0-1.27 0-1.87.68.06 1.39.06 2.1.04zm-413.79-1.77v2.13c-.7 0-1.44.06-2.16.07 0-.73 0-1.45.05-2.17zm-2.42 194.32h2.23v2.15h-2.23zm413 1.1c-15.94.17-32.61.43-46.78.09-17.19-.41-34.5.31-52.85-.16-8.41-.22-17.1-.15-25.61 0-4 .07-8.1.31-12.1.16-13.38-.53-27.06-.07-40.11 0-24.55.14-52.36 0-79.41.34-20.69.23-44.86.28-64.3.15-25.11-.17-43.47.05-67.16.35-7.18.09-14.69.25-21.81.17 0-.7 0-1.41 0-2.11.7 0 1.35.12 1.9.21 5.75-.62 11.6-.23 16.87-.39.25.05.27-.16.47-.16 0-.17 0-.34 0-.5-2.73.27-5.55-.25-7.48.43-2.4-.64-5.58-.26-7.95-.24-1.21 0-2.51 0-3.8 0 0-7.52-.06-15.11-.09-22.88-.12-22.3.14-49.09.17-72.72 0-5.55-.12-11.61.21-17.52.36-6.69-.19-13.48-.14-20.36.08-12.41.16-25.71-.1-37.4-.88 1.72-.46 3.77-.46 5.58 0 24.26-.08 52.9-.13 77.5-.05 28 0 58.38-.07 87.79h-2.22c0-12.23.06-24.68 0-37-.12-20.68 0-44.85.22-64.29.32-25.11.2-43.48 0-67.16-.06-7.39-.16-15.14 0-22.44h2.14a23.21 23.21 0 0 1 -.26 2.55c.57 5.75.16 11.6.29 16.87 0 .25.15.27.16.48h.5c-.26-2.73.27-5.54-.38-7.48.64-2.4.28-5.58.27-7.95 0-1.42.05-3 .08-4.47h3.44c2.39 0 5.56.41 8-.23 1.92.68 4.73.17 7.47.45v-.5c-.2 0-.21-.21-.47-.17-5.27-.17-11.11.21-16.86-.41-.46.07-1 .13-1.54.18 0-.73 0-1.42 0-2.1 7-.05 14.39.11 21.44.21 23.68.35 42.05.59 67.15.47 19.44-.1 43.61 0 64.3.25 27.05.36 54.86.29 79.42.47 13 .1 26.72.57 40.1.08 4-.15 8.07.1 12.09.17 8.52.15 17.21.23 25.63 0 18.34-.45 35.65.3 52.84-.08 14.18-.32 30.84 0 46.79.17h.64v1.89c-13 .22-25.32-.06-37.6.06-7.32.07-14.74-.39-22.44-.15-.64 0-.71 0-1.12.48-6.67-.78-13.52-.38-20.37-.12s-13.59-.31-20.37-.14c-13.88.36-28 0-41.55-.09-13-.11-26.56 0-39.94-.07-39.91-.18-84.91-.57-124.93-.79-24.6-.14-53.24-.29-77.5-.44-1.8 0-3.85-.46-5.58.42 11.68.33 25 .35 37.4.36 6.88 0 13.67.61 20.37.29 5.9-.28 12-.12 17.5-.08 23.63.17 50.43.1 72.73.37 33.38.42 63.68.75 97.08.56 14-.08 31.07.23 46.8 0 3.17 0 6.35.55 9.54 0 16.32.31 32.87 0 47.6 0 14.29 0 27.54.27 42.4 0 0 1.64.11 3.35.11 4.91 0 2.37-.34 5.55.31 7.95-.64 1.94-.09 4.74-.34 7.48h.5c0-.2.21-.22.16-.47.1-5.27-.35-11.12.2-16.87a25.87 25.87 0 0 1 -.3-3h2.16c.18 7.45.11 15.39.09 23-.05 23.68-.06 42.05.38 67.15.33 19.44.56 43.6.54 64.3 0 11.38.07 22.89.16 34.24h-2.23c-.16-28.52-.3-57.88-.49-85-.17-24.59-.37-53.23-.52-77.49 0-1.81.4-3.87-.49-5.58-.19 11.69 0 25 .1 37.4.08 6.89-.44 13.67 0 20.37.36 5.9.27 11.95.3 17.5.13 23.63.53 50.42.53 72.73v20c-15.26-.31-28.78 0-43.39-.07s-31.28-.35-47.59-.07c-3.19-.59-6.38 0-9.55 0-15.74-.26-32.83 0-46.79-.07-33.41-.24-63.71 0-97.08.4-22.31.24-49.11.13-72.73.25-5.55 0-11.61.18-17.51-.11-6.7-.32-13.48.27-20.37.27-12.4 0-25.71 0-37.4.3 1.73.88 3.79.44 5.58.42l77.51-.31c40-.15 85-.48 124.92-.59 13.38 0 26.93.08 40 0 13.57-.08 27.66-.4 41.54 0 6.79.18 13.63-.35 20.37-.1s13.7.67 20.37-.09c.41.49.48.46 1.12.48 7.7.25 15.11-.19 22.44-.11 12.61.14 25.22-.14 38.61.14v1.71zm2.27 0c0-.62 0-1.24 0-1.85h2.22v1.87c-.76 0-1.5 0-2.24 0z"/><path d="m454.92 582.74h-11.12v-7.74l-1.52-1.35 1.52-1.33v-7.91h11.12v2.69h-8.43v5.22h6.51v2.68h-6.49v5.09h8.43z"/><path d="m475.22 579.7-3.46 3.07h-6.23l-3.45-3.07v-3.34h2.68v2.06l1.91 1.66h4l1.91-1.66v-2.06l-1.91-1.63h-4.72l-3.46-3.08v-4.22l3.45-3.06h5.84l3.46 3.06v3.06h-2.66v-1.9l-1.79-1.53h-3.83l-1.79 1.53v1.9l1.79 1.56h4.84l3.46 3.06z"/><path d="m495.2 567.06h-5.34v5.24l1.53 1.33-1.53 1.37v7.81h-2.69v-7.81l-1.53-1.33 1.53-1.33v-5.24h-5.37v-2.69h13.4z"/><path d="m503.84 582.77h-2.69v-2.69h2.69z"/><path d="m523.79 582.77h-12.79v-6.91l3.47-3.07h4.84l1.79-1.55v-2.65l-1.79-1.53h-3.83l-1.79 1.53v1.9h-2.65v-3.06l3.45-3.06h5.85l3.44 3.06v5l-3.45 3.08h-4.73l-1.91 1.63v3h10.09z"/><path d="m545.83 573.63-1.54 1.37v4.74l-3.43 3.07h-5l-3.45-3.07v-4.74l-1.55-1.33 1.55-1.35v-4.85l3.45-3.06h5l3.43 3.06v4.85zm-4.22 4.82v-9.74l-1.91-1.65h-2.7l-1.92 1.65v9.74l1.92 1.63h2.72z"/><path d="m560.73 582.77h-7.38v-2.64h2.36v-5.3l-1.53-1.33 1.53-1.33v-4.17h-2.33v-2l2.33-1.63h2.69v7.8l1.53 1.33-1.53 1.33v5.3h2.33z"/><path d="m573.64 574.68v-2.68h4.86l3.44 2.86v4.84l-3.44 3.07h-5.84l-3.47-3.07v-3.06h2.69v1.91l1.78 1.53h3.82l1.78-1.53v-2.44l-1.78-1.43h-3.84l5.62-3.93v-2.16l-1.78-1.53h-3.82l-1.78 1.53v1.9h-2.69v-3.06l3.47-3.06h5.84l3.44 3.06v4.47l-1.86 1.38z"/><path d="m367.61 483.74h-25.94v-18.15l-3.57-3.17 3.57-3.1v-18.45h25.94v6.27h-19.68v12.18h15.17v6.27h-15.17v11.88h19.68z"/><path d="m408.61 483.8h-25.94v-18.21l-3.58-3.11 3.58-3.16v-18.45h6.26v36.66h19.68z"/><path d="m449.55 483.74h-25.94v-18.15l-3.61-3.17 3.58-3.1v-18.45h25.94v6.27h-19.65v12.18h15.13v6.27h-15.13v11.88h19.68z"/><path d="m493.59 457.56-7 8.08h-14.49v18.16h-6.27v-18.21l-3.57-3.11 3.57-3.16v-18.45h20.79l7 8zm-6.26-2.65v-3.3l-3.69-4.47h-11.54v12.24h11.54z"/><path d="m544.49 462.42-3.58 3.17v18.15h-6.26v-18.15h-17.87v18.15h-6.26v-18.15l-3.52-3.17 3.57-3.1v-18.45h6.26v18.45h17.87v-18.45h6.26v18.45z"/><path d="m593.69 483.8h-6.57l-4-10.72h-17.61l-4 10.72h-6.57l6.8-18.16-3-3.16 5.21-2.69 7.05-18.92h6.56zm-13-17-6.44-17.57-6.44 17.57z"/><path d="m640.89 462.48-3.57 3.11v18.21h-6.27l-17.92-31.8v31.8h-6.27v-18.21l-3.57-3.11 3.57-3.16v-18.45h6.62l17.57 30.92v-30.92h6.27v18.45z"/><path d="m681.89 447.14h-12.47v12.24l3.57 3.1-3.57 3.11v18.21h-6.27v-18.21l-3.58-3.11 3.58-3.1v-12.24h-12.53v-6.27h31.27z"/><path d="m375 528.71-8 7.15h-15.29l-8-7.15v-11.07l-3.58-3.1 3.58-3.16v-11.3l8-7.15h15.11l8 7.15.12 9h-6.24v-5.69l-4.45-4.15h-9.84l-4.41 3.82v22.67l4.45 3.86h9.84l4.45-4.15v-4.58h-8.32v-6.26h14.58z"/><path d="m424 535.86h-6.79l-9-18.16h-7.67v18.16h-6.27v-18.16l-3.57-3.16 3.57-3.1v-18.51h20.74l7 8.08v8.61l-7 8.08zm-8.25-28.95v-3.3l-3.69-4.41h-11.44v12.24h11.48z"/><path d="m476.81 514.54-3.57 3.1v11.07l-8 7.15h-15.24l-8.08-7.15v-11.07l-3.58-3.1 3.58-3.16v-11.3l8.08-7.15h15.22l8 7.15v11.3zm-9.81 11.24v-22.72l-4.47-3.86h-9.86l-4.46 3.86v22.72l4.46 3.81h9.86z"/><path d="m529.35 514.54-3.58 3.1v11l-8 7.21h-15.25l-8-7.21v-11l-3.57-3.1 3.57-3.16v-18.45h6.27v32.74l4.45 3.92h9.84l4.45-3.92v-32.74h6.26v18.45z"/><path d="m581.88 514.54-3.57 3.1v18.22h-6.26l-17.92-31.8v31.8h-6.27v-18.22l-3.58-3.1 3.58-3.16v-18.45h6.62l17.57 30.92v-30.92h6.26v18.45z"/><path d="m631.08 528.65-8 7.15h-22.46v-18.16l-3.56-3.16 3.56-3.1v-18.45h22.38l8 7.15zm-6.27-2.92v-22.67l-4.52-3.86h-13.39v30.33h13.39z"/><path d="m678.05 528.71-8.05 7.15h-14.57l-8.07-7.15v-7.79h6.27v4.81l4.45 3.86h9.25l4.45-3.86v-4.81l-4.45-3.8h-11l-8.08-7.2v-9.84l8.07-7.15h13.62l8.07 7.15v7.14h-6.22v-4.45l-4.16-3.57h-8.94l-4.17 3.57v4.45l4.16 3.63h11.32l8.08 7.14z"/></g><path d="m131.7 65.3h3.09v.43h-3.09z"/><path d="m131.7 57.17h3.09v.29h-3.09z"/><path d="m146.87 55.66h3.08v.38h-3.08z"/><path d="m128.53 57.03h2.03v.43h-2.03z"/><path d="m128.53 58.41h2.03v.43h-2.03z"/><path d="m128.53 59.79h2.03v.43h-2.03z"/><path d="m131.7 66.67h3.09v.11h-3.09z"/><path d="m131.7 59.79h3.09v.43h-3.09z"/><path d="m131.7 58.41h3.09v.43h-3.09z"/><path d="m131.7 61.17h3.09v.43h-3.09z"/><path d="m131.7 62.54h3.09v.43h-3.09z"/><path d="m131.7 63.92h3.09v.43h-3.09z"/><path d="m131.7 41.88h3.09v.43h-3.09z"/><path d="m128.53 61.17h2.03v.43h-2.03z"/><path d="m131.7 40.5h3.09v.43h-3.09z"/><path d="m131.7 44.63h3.09v.43h-3.09z"/><path d="m131.7 43.26h3.09v.43h-3.09z"/><path d="m131.7 39.13h3.09v.42h-3.09z"/><path d="m128.53 62.54h2.03v.43h-2.03z"/><path d="m128.53 66.67h2.03v.43h-2.03z"/><path d="m128.53 63.92h2.03v.43h-2.03z"/><path d="m128.53 65.3h2.03v.43h-2.03z"/><path d="m131.7 46.01h3.09v.42h-3.09z"/><path d="m242.75 63.92h3.09v.43h-3.09z"/><path d="m128.53 68.05h21.71v.43h-21.71z"/><path d="m242.75 59.79h3.09v.43h-3.09z"/><path d="m242.75 61.17h3.09v.43h-3.09z"/><path d="m242.75 65.3h3.09v.43h-3.09z"/><path d="m242.75 68.05h3.09v.43h-3.09z"/><path d="m242.75 70.81h3.09v.43h-3.09z"/><path d="m242.75 72.19h3.09v.43h-3.09z"/><path d="m242.75 58.41h3.09v.43h-3.09z"/><path d="m242.75 69.43h3.09v.43h-3.09z"/><path d="m242.75 66.67h3.09v.43h-3.09z"/><path d="m242.75 62.54h3.09v.43h-3.09z"/><path d="m170.75 57.03h2.04v.43h-2.04z"/><path d="m128.53 70.81h21.71v.43h-21.71z"/><path d="m170.75 58.41h2.04v.43h-2.04z"/><path d="m128.53 72.19h21.71v.43h-21.71z"/><path d="m128.53 69.43h21.71v.43h-21.71z"/><path d="m131.7 47.39h3.09v.43h-3.09z"/><path d="m245.84 56.03.42-.37h-2.51l-.48.42h2.57z"/><path d="m215.44 57.03h2.03v.43h-2.03z"/><path d="m252.78 99.74h2.04v.42h-2.04z"/><path d="m215.44 58.41h2.03v.43h-2.03z"/><path d="m168.98 84.59.48.43h2.52l-.48-.43z"/><path d="m173.92 63.92h3.1v.43h-3.1z"/><path d="m128.53 47.39h2.03v.43h-2.03z"/><path d="m173.92 59.79h3.1v.43h-3.1z"/><path d="m173.92 65.3h3.1v.43h-3.1z"/><path d="m173.92 66.67h3.1v.43h-3.1z"/><path d="m125.47 53.33h20.27v-.43h-20.75z"/><path d="m173.92 61.17h3.1v.43h-3.1z"/><path d="m128.53 48.76h2.03v.43h-2.03z"/><path d="m127.6 50.57h18.14v-.43h-17.65z"/><path d="m126.01 51.95h19.73v-.43h-19.23z"/><path d="m173.92 68.05h3.1v.43h-3.1z"/><path d="m173.92 62.54h3.1v.43h-3.1z"/><path d="m153.06 85.02h14.69l-.49-.43h-13.72z"/><path d="m215.44 66.67h2.03v.43h-2.03z"/><path d="m149.94 87.77h20.9l-.47-.42h-19.94z"/><path d="m151.51 86.39h17.79l-.48-.43h-16.83z"/><path d="m239.58 72.19h2.03v.43h-2.03z"/><path d="m173.92 73.57h3.1v.42h-3.1z"/><path d="m173.92 72.19h3.1v.43h-3.1z"/><path d="m173.92 70.81h3.1v.43h-3.1z"/><path d="m176.14 88.72h-2.52l.48.43h2.52z"/><path d="m173.92 69.43h3.1v.43h-3.1z"/><path d="m151.39 73.57h3.09v.42h-3.09z"/><path d="m151.39 72.19h3.09v.43h-3.09z"/><path d="m146.87 50.14h3.08v.43h-3.08z"/><path d="m128.53 73.57h21.71v.42h-21.71z"/><path d="m151.39 70.81h3.09v.43h-3.09z"/><path d="m151.39 69.43h3.09v.43h-3.09z"/><path d="m146.87 54.28h3.08v.43h-3.08z"/><path d="m146.87 52.9h3.08v.43h-3.08z"/><path d="m146.87 51.52h3.08v.43h-3.08z"/><path d="m151.39 68.05h3.09v.43h-3.09z"/><path d="m127.03 54.7h18.71v-.42h-19.19z"/><path d="m128.53 56.08h2.03v-.05h4.23 10.95v-.37h-17.64l.43.37z"/><path d="m128.53 41.88h2.03v.43h-2.03z"/><path d="m128.53 39.13h2.03v.42h-2.03z"/><path d="m128.53 40.5h2.03v.43h-2.03z"/><path d="m128.53 46.01h2.03v.42h-2.03z"/><path d="m128.53 44.63h2.03v.43h-2.03z"/><path d="m128.53 43.26h2.03v.43h-2.03z"/><path d="m128.53 36.37h21.71v.43h-21.71z"/><path d="m151.39 34.99h3.09v.43h-3.09z"/><path d="m128.53 34.99h21.71v.43h-21.71z"/><path d="m151.39 36.37h3.09v.43h-3.09z"/><path d="m128.53 37.74h2.03v.43h-2.03z"/><path d="m239.58 68.05h2.03v.43h-2.03z"/><path d="m276.97 87.35h2.04v.42h-2.04z"/><path d="m276.97 85.96h2.04v.43h-2.04z"/><path d="m276.97 88.72h2.04v.43h-2.04z"/><path d="m276.97 90.1h2.04v.43h-2.04z"/><path d="m276.97 101.12h2.04v.42h-2.04z"/><path d="m271.76 112.57-.25-.43h-2.52l.24.43z"/><path d="m276.97 91.48h2.04v.43h-2.04z"/><path d="m270.97 111.19-.24-.42h-2.52l.24.42z"/><path d="m276.97 83.38h2.04v.26h-2.04z"/><path d="m276.52 113.52h-3.78v.43h4.03z"/><path d="m272.54 113.95-.24-.43h-2.54l.25.43z"/><path d="m276.97 94.23h2.04v.42h-2.04z"/><path d="m280.14 99.74h3.1v.42h-3.1z"/><path d="m283.24 101.12h-3.1v.19l.27.24h2.83z"/><path d="m276.97 92.85h2.04v.43h-2.04z"/><path d="m276.97 99.74h2.04v.42h-2.04z"/><path d="m280.14 98.37h3.1v.43h-3.1z"/><path d="m280.14 96.98h3.1v.43h-3.1z"/><path d="m270.19 109.82-.24-.43h-2.52l.25.43z"/><path d="m276.97 95.61h2.04v.43h-2.04z"/><path d="m276.97 96.98h2.04v.43h-2.04z"/><path d="m276.97 98.37h2.04v.43h-2.04z"/><path d="m259.05 94.51.09.15h2.44l-.24-.43h-8.56v.43h2.04v-.15l.08.15h4.15z"/><path d="m259.05 99.74h-1.28l.24.43h1.04z"/><path d="m255.95 99.74v.43h.75l-.24-.43z"/><path d="m259.05 96.98h-2.84l.24.43h2.6z"/><path d="m255.95 101.12v.43h1.53l-.24-.43z"/><path d="m259.05 98.37h-2.06l.24.42h1.82z"/><path d="m269.41 108.43-.25-.42h-2.5l.24.42z"/><path d="m252.78 101.12h2.04v.42h-2.04z"/><path d="m252.78 98.37h2.04v.43h-2.04z"/><path d="m254.82 102.5h-2.8l-.48.42h3.28z"/><path d="m259.05 95.61h-3.61l.24.43h3.37z"/><path d="m252.78 96.98h2.04v.43h-2.04z"/><path d="m252.78 95.61h2.04v.43h-2.04z"/><path d="m267.06 104.31-.25-.43h-2.48l.24.43z"/><path d="m266.27 102.92-.24-.42h-2.47l.23.42z"/><path d="m268.63 107.06-.25-.43h-2.5l.25.43z"/><path d="m265.5 101.55-.25-.43h-2.48l.25.43z"/><path d="m267.84 105.68-.24-.42h-2.5l.25.42z"/><path d="m264.71 100.17-.24-.43h-2.47l.24.43z"/><path d="m262.36 96.04-.24-.43h-2.45l.24.43z"/><path d="m263.14 97.41-.24-.43h-2.45l.24.43z"/><path d="m263.93 98.79-.25-.42h-2.45l.23.42z"/><path d="m280.14 95.61h3.1v.43h-3.1z"/><path d="m283.56 51.52.15.43h2.3l-.17-.43z"/><path d="m273.53 37.74-.15.43h7.46l-.16-.43z"/><path d="m274.56 34.99-.16.43h5.41l-.16-.43z"/><path d="m280.14 94.23h3.1v.42h-3.1z"/><path d="m275.09 33.61-.17.43h4.37l-.16-.43z"/><path d="m275.6 32.24-.16.42h3.34l-.17-.42z"/><path d="m280.54 43.26.15.42h2.22l-.16-.42z"/><path d="m281.04 44.63.15.43h2.24l-.16-.43z"/><path d="m244.82 54.7h2.52l.48-.42h-2.52z"/><path d="m280.02 41.88.16.42h2.21l-.16-.42z"/><path d="m273.02 39.13-.16.42h8.5l-.16-.42z"/><path d="m281.54 46.01.16.43h2.24l-.15-.43z"/><path d="m279.52 40.5.16.42h2.2l-.16-.42z"/><path d="m239.58 65.3h2.03v.43h-2.03z"/><path d="m239.58 66.67h2.03v.43h-2.03z"/><path d="m239.58 69.43h2.03v.43h-2.03z"/><path d="m239.58 63.92h2.03v.43h-2.03z"/><path d="m174.6 87.35h-2.52l.48.42h2.51z"/><path d="m239.58 57.03h2.03v.43h-2.03z"/><path d="m239.58 59.79h2.03v.43h-2.03z"/><path d="m239.58 58.41h2.03v.43h-2.03z"/><path d="m239.58 62.54h2.03v.43h-2.03z"/><path d="m239.58 61.17h2.03v.43h-2.03z"/><path d="m274.05 36.37-.16.42h6.44l-.16-.42z"/><path d="m280.14 84.59h3.1v.43h-3.1z"/><path d="m280.14 83.38h3.1v.26h-3.1z"/><path d="m276.97 84.59h2.04v.43h-2.04z"/><path d="m279.77 102.5h-2.8v.42h3.28z"/><path d="m284 102.5h-2.52l.49.42h2.51z"/><path d="m280.14 85.96h3.1v.43h-3.1z"/><path d="m280.14 91.48h3.1v.43h-3.1z"/><path d="m280.14 87.35h3.1v.42h-3.1z"/><path d="m282.04 47.39.17.42h2.25l-.16-.42z"/><path d="m280.14 90.1h3.1v.43h-3.1z"/><path d="m280.14 88.72h3.1v.43h-3.1z"/><path d="m280.14 92.85h3.1v.43h-3.1z"/><path d="m284.57 54.28.16.42h2.32l-.17-.42z"/><path d="m239.58 70.81h2.03v.43h-2.03z"/><path d="m284.07 52.9.15.43h2.31l-.16-.43z"/><path d="m282.55 48.76.16.43h2.26l-.15-.43z"/><path d="m283.06 50.14.15.43h2.28l-.16-.43z"/><path d="m265.25 59.79-.16.43h24.02l-.16-.43z"/><path d="m264.73 61.17-.16.42h25.06l-.16-.42z"/><path d="m285.08 55.66.16.42h2.32l-.16-.42z"/><path d="m265.77 58.41-.17.43h23l-.16-.43z"/><path d="m285.58 57.03.08.23h-4.23-8.65-4.23l.08-.23h-2.36l-.15.43h21.96l-.17-.43z"/><path d="m242.75 57.03h3.09v.43h-3.09z"/><path d="m199.42 90.1h2.04v.43h-2.04z"/><path d="m199.42 92.85h2.04v.43h-2.04z"/><path d="m199.42 91.48h2.04v.43h-2.04z"/><path d="m199.42 87.35h2.04v.42h-2.04z"/><path d="m170.75 48.76h2.04v.43h-2.04z"/><path d="m199.42 101.12h2.04v.42h-2.04z"/><path d="m199.42 99.74h2.04v.42h-2.04z"/><path d="m199.42 98.37h2.04v.43h-2.04z"/><path d="m199.42 94.23h2.04v.42h-2.04z"/><path d="m199.42 96.98h2.04v.43h-2.04z"/><path d="m199.42 85.96h2.04v.43h-2.04z"/><path d="m199.42 95.61h2.04v.43h-2.04z"/><path d="m199.42 110.76h2.04v.43h-2.04z"/><path d="m199.42 112.14h2.04v.43h-2.04z"/><path d="m199.42 109.39h2.04v.43h-2.04z"/><path d="m205.25 119.46-.48-.43h-5.35v.07l.4.36z"/><path d="m218.62 61.17h3.09v.43h-3.09z"/><path d="m201.46 105.68v-.42h-5.3l.5.42z"/><path d="m199.42 108.43h2.04v-.42h-2.13l.09.08z"/><path d="m201.46 107.06v-.43h-3.71l.49.43z"/><path d="m199.42 113.52h2.04v.43h-2.04z"/><path d="m199.42 114.9h2.04v.43h-2.04z"/><path d="m192.25 42.06v.24h2.03v-.42h-2.18z"/><path d="m192.25 44.63h2.03v.43h-2.03z"/><path d="m195.42 44.63h3.1v.43h-3.1z"/><path d="m195.42 43.26h3.1v.43h-3.1z"/><path d="m192.25 43.26h2.03v.43h-2.03z"/><path d="m195.42 41.88h3.1v.43h-3.1z"/><path d="m195.42 46.01h3.1v.42h-3.1z"/><path d="m196.68 50.14h-2.73l-.37.43h2.73z"/><path d="m169.85 50.57h22.22l.37-.43h-22.11z"/><path d="m197.86 48.76h-2.72l-.38.43h2.74z"/><path d="m195.42 47.39h3.1v.43h-3.1z"/><path d="m195.12 51.95.37-.43h-2.73l-.37.43z"/><path d="m193.11 54.28h-2.73l-.37.42h2.73z"/><path d="m188.88 54.28h-20.14l.49.42h19.28z"/><path d="m196.62 104.31h4.84v-.43h-4.35z"/><path d="m198.67 102.5-.49.42h3.28v-.42z"/><path d="m167.19 52.93.45.4h22.06l.36-.43h-22.84z"/><path d="m194.3 52.9h-2.73l-.37.43h2.74z"/><path d="m191.35 46.44h2.93v-.43h-2.58z"/><path d="m190.22 47.81h4.06v-.42h-3.71z"/><path d="m218.62 59.79h3.09v.43h-3.09z"/><path d="m168.29 51.95h22.6l.36-.43h-22.48z"/><path d="m189.08 49.19h4.18l.37-.43h-4.19z"/><path d="m199.42 88.72h2.04v.43h-2.04z"/><path d="m227.6 88.72h3.1v.43h-3.1z"/><path d="m227.6 90.1h3.1v.43h-3.1z"/><path d="m227.6 85.96h3.1v.43h-3.1z"/><path d="m227.6 87.35h3.1v.42h-3.1z"/><path d="m227.6 91.48h3.1v.43h-3.1z"/><path d="m227.6 98.37h3.1v.43h-3.1z"/><path d="m227.6 84.59h3.1v.43h-3.1z"/><path d="m227.6 92.85h3.1v.43h-3.1z"/><path d="m227.6 96.98h3.1v.43h-3.1z"/><path d="m227.6 95.61h3.1v.43h-3.1z"/><path d="m227.6 94.23h3.1v.42h-3.1z"/><path d="m215.44 63.92h2.03v.43h-2.03z"/><path d="m215.44 62.54h2.03v.43h-2.03z"/><path d="m215.44 61.17h2.03v.43h-2.03z"/><path d="m215.44 59.79h2.03v.43h-2.03z"/><path d="m227.6 99.74h3.1v.42h-3.1z"/><path d="m215.44 65.3h2.03v.43h-2.03z"/><path d="m218.62 62.54h3.09v.43h-3.09z"/><path d="m224.44 84.59h2.03v.43h-2.03z"/><path d="m231.46 102.5h-2.52l.48.42h2.52z"/><path d="m227.23 102.5h-2.79v.42h3.27z"/><path d="m227.6 83.38h3.1v.26h-3.1z"/><path d="m218.62 58.41h3.09v.43h-3.09z"/><path d="m218.62 70.81h3.09v.43h-3.09z"/><path d="m218.62 72.19h3.09v.43h-3.09z"/><path d="m218.62 73.57h3.09v.42h-3.09z"/><path d="m224.44 101.12h2.03v.42h-2.03z"/><path d="m224.44 83.38h2.03v.26h-2.03z"/><path d="m218.62 66.67h3.09v.43h-3.09z"/><path d="m218.62 65.3h3.09v.43h-3.09z"/><path d="m218.62 63.92h3.09v.43h-3.09z"/><path d="m218.62 69.43h3.09v.43h-3.09z"/><path d="m218.62 68.05h3.09v.43h-3.09z"/><path d="m224.44 87.35h2.03v.42h-2.03z"/><path d="m224.44 99.74h2.03v.42h-2.03z"/><path d="m224.44 95.61h2.03v.43h-2.03z"/><path d="m224.44 96.98h2.03v.43h-2.03z"/><path d="m224.44 98.37h2.03v.43h-2.03z"/><path d="m224.44 94.23h2.03v.42h-2.03z"/><path d="m230.7 101.12h-3.1v.19l.28.24h2.82z"/><path d="m224.44 91.48h2.03v.43h-2.03z"/><path d="m224.44 90.1h2.03v.43h-2.03z"/><path d="m224.44 88.72h2.03v.43h-2.03z"/><path d="m224.44 85.96h2.03v.43h-2.03z"/><path d="m224.44 92.85h2.03v.43h-2.03z"/><path d="m146.83 112.14h2.04v.43h-2.04z"/><path d="m150 108.01h3.09v.42h-3.09z"/><path d="m150 109.39h3.09v.43h-3.09z"/><path d="m146.83 109.39h2.04v.43h-2.04z"/><path d="m146.83 110.76h2.04v.43h-2.04z"/><path d="m170.44 83.64-.3-.26h-2.52l.29.26z"/><path d="m150 106.63h3.09v.43h-3.09z"/><path d="m145.59 102.92h3.28v-.42h-2.8z"/><path d="m144.03 104.31h4.84v-.43h-4.35z"/><path d="m150 105.26h3.09v.42h-3.09z"/><path d="m146.83 113.52h2.04v.43h-2.04z"/><path d="m150 103.88h3.09v.43h-3.09z"/><path d="m148.87 105.68v-.42h-5.3l.48.42z"/><path d="m146.83 108.43h2.04v-.42h-2.13l.09.08z"/><path d="m148.87 107.06v-.43h-3.72l.49.43z"/><path d="m146.83 101.12h2.04v.42h-2.04z"/><path d="m171.91 88.72h-23.04l-.49.43h24.01z"/><path d="m152.65 119.46-.5-.43h-5.32v.13l.34.3z"/><path d="m154.77 117.66h-2.48l.5.42h2.47z"/><path d="m146.83 116.7h2.59l-.51-.42h-2.08z"/><path d="m170.75 47.39h2.04v.43h-2.04z"/><path d="m146.83 90.53h5.47l.51-.43h-5.5z"/><path d="m146.83 114.9h2.04v.43h-2.04z"/><path d="m146.83 96.98h2.04v.43h-2.04z"/><path d="m150 94.23h3.09v.42h-3.09z"/><path d="m150 98.37h3.09v.43h-3.09z"/><path d="m150 95.61h3.09v.43h-3.09z"/><path d="m150 96.98h3.09v.43h-3.09z"/><path d="m150 114.9h3.09v.43h-3.09z"/><path d="m153.65 116.7-.5-.42h-2.48l.5.42z"/><path d="m154.95 91.9.49-.42h-2.49l-.49.42z"/><path d="m154.62 83.64h11.58l-.29-.26h-10.99z"/><path d="m150 112.14h3.09v.43h-3.09z"/><path d="m150 110.76h3.09v.43h-3.09z"/><path d="m150 113.52h3.09v.43h-3.09z"/><path d="m146.83 94.23h2.04v.42h-2.04z"/><path d="m146.83 95.61h2.04v.43h-2.04z"/><path d="m146.83 93.28h2.3l.49-.43h-2.79z"/><path d="m146.83 99.74h2.04v.42h-2.04z"/><path d="m173.94 90.53-.48-.43h-5.49l.48.43z"/><path d="m146.83 98.37h2.04v.43h-2.04z"/><path d="m146.83 91.9h3.89l.49-.42h-4.38z"/><path d="m150 99.74h3.09v.42h-3.09z"/><path d="m150 102.5h3.09v.42h-3.09z"/><path d="m150 101.12h3.09v.42h-3.09z"/><path d="m151.36 92.85-.49.43h2.49l.5-.43z"/><path d="m146.83 118.08h4.2l-.5-.42h-3.7z"/><path d="m170.75 73.57h2.04v.42h-2.04z"/><path d="m173.92 39.13h3.1v.42h-3.1z"/><path d="m173.92 40.5h3.1v.43h-3.1z"/><path d="m170.75 72.19h2.04v.43h-2.04z"/><path d="m173.92 41.88h3.1v.43h-3.1z"/><path d="m170.75 68.05h2.04v.43h-2.04z"/><path d="m170.75 66.67h2.04v.43h-2.04z"/><path d="m170.75 70.81h2.04v.43h-2.04z"/><path d="m170.75 65.3h2.04v.43h-2.04z"/><path d="m173.92 43.26h3.1v.43h-3.1z"/><path d="m170.75 69.43h2.04v.43h-2.04z"/><path d="m170.75 41.88h2.04v.43h-2.04z"/><path d="m170.75 63.92h2.04v.43h-2.04z"/><path d="m170.75 43.26h2.04v.43h-2.04z"/><path d="m173.92 44.63h3.1v.43h-3.1z"/><path d="m170.75 46.01h2.04v.42h-2.04z"/><path d="m170.75 44.63h2.04v.43h-2.04z"/><path d="m170.75 40.5h2.04v.43h-2.04z"/><path d="m173.92 47.39h3.1v.43h-3.1z"/><path d="m173.92 46.01h3.1v.42h-3.1z"/><path d="m170.75 39.13h2.04v.42h-2.04z"/><path d="m170.75 37.74h2.04v.43h-2.04z"/><path d="m173.94 91.9v-.42h-4.39l.49.42z"/><path d="m175.07 95.61h3.09v.43h-3.09z"/><path d="m175.07 99.74h3.09v.42h-3.09z"/><path d="m171.9 99.74h2.03v.42h-2.03z"/><path d="m175.07 96.98h3.09v.43h-3.09z"/><path d="m175.07 98.37h3.09v.43h-3.09z"/><path d="m178.16 101.12h-3.09v.19l.27.24h2.82z"/><path d="m171.9 98.37h2.03v.43h-2.03z"/><path d="m170.75 62.54h2.04v.43h-2.04z"/><path d="m171.9 95.61h2.03v.43h-2.03z"/><path d="m171.9 96.98h2.03v.43h-2.03z"/><path d="m171.9 94.23h2.03v.42h-2.03z"/><path d="m171.9 101.12h2.03v.42h-2.03z"/><path d="m175.07 90.1v.43h3.09l-.47-.43z"/><path d="m178.93 102.5h-2.52l.48.42h2.52z"/><path d="m173.92 58.41h3.1v.43h-3.1z"/><path d="m170.75 61.17h2.04v.43h-2.04z"/><path d="m175.07 94.23h3.09v.42h-3.09z"/><path d="m170.75 59.79h2.04v.43h-2.04z"/><path d="m175.07 91.48h3.09v.43h-3.09z"/><path d="m175.07 92.85h3.09v.43h-3.09z"/><path d="m174.7 102.5h-2.8v.42h3.27z"/><path d="m173.94 93.28v-.43h-2.8l.5.43z"/><path d="m173.53 86.39-.48-.43h-2.52l.47.43z"/><path d="m376 110.77.5.42h2.25v-.42z"/><path d="m376.71 112.14h2.04v.43h-2.04z"/><path d="m376.71 113.52h2.04v.43h-2.04z"/><path d="m374.39 109.39.5.43h3.86v-.43z"/><path d="m372.78 108.01.5.42h5.46l-.49-.42z"/><path d="m376.71 114.9h2.04v.43h-2.04z"/><path d="m382.49 108.01h-2.61v.42h3.09z"/><path d="m355.25 121.78.48.44h19.57l.48-.44z"/><path d="m355.46 112.14h3.09v.43h-3.09z"/><path d="m376.6 116.28-.5.42h2.65v-.42z"/><path d="m375.01 117.66-.49.42h4.23v-.42z"/><path d="m355.54 34.99h27.04v.43h-27.04z"/><path d="m326.35 119.03-.51.43h5.54l.39-.36v-.07z"/><path d="m326.25 90.53h5.52l-.47-.43h-5.55z"/><path d="m276.97 108.01v.42h2.03v-.34l.1-.08z"/><path d="m285.55 103.88h-2.51l.29.26.19.17h2.52z"/><path d="m355.54 36.37h27.04v.43h-27.04z"/><path d="m335.98 55.66v.42h2.03v-.05l.43-.37z"/><path d="m356.81 123.16.48.43h16.45l.49-.43z"/><path d="m355.54 33.61h27.04v.43h-27.04z"/><path d="m355.54 32.24h27.04v.43h-27.04z"/><path d="m342.2 51.95h2.5l-.47-.43h-2.51z"/><path d="m335.98 53.33h5.14l.46-.4-.03-.03h-5.57z"/><path d="m371.12 125.92h-11.2l.43.39h10.33z"/><path d="m379.82 91.48h3.1v.43h-3.1z"/><path d="m382.92 90.53-.48-.43h-2.62v.43z"/><path d="m368.08 40.5h2.03v.43h-2.03z"/><path d="m368.08 39.13h2.03v.42h-2.03z"/><path d="m368.08 37.74h2.03v.43h-2.03z"/><path d="m379.82 92.85h3.1v.43h-3.1z"/><path d="m358.1 119.46-.49-.43h-5.32v.13l.33.3z"/><path d="m376.69 106.63h-16.49l.49.43h16.49z"/><path d="m379.82 96.98h3.1v.43h-3.1z"/><path d="m379.82 94.23h3.1v.42h-3.1z"/><path d="m358.36 124.54.49.43h13.34l.48-.43z"/><path d="m379.82 95.61h3.1v.43h-3.1z"/><path d="m367.21 50.57h3.75l-.48-.43h-2.77z"/><path d="m365.62 51.95h6.93l-.49-.43h-5.94z"/><path d="m364.5 52.93.46.4h8.26l.46-.4-.03-.03h-9.11z"/><path d="m368.08 48.76h2.03v.43h-2.03z"/><path d="m233.02 103.88h-2.52l.3.26.18.17h2.52z"/><path d="m368.08 43.26h2.03v.43h-2.03z"/><path d="m368.08 44.63h2.03v.43h-2.03z"/><path d="m368.08 41.88h2.03v.43h-2.03z"/><path d="m368.08 46.01h2.03v.42h-2.03z"/><path d="m368.08 47.39h2.03v.43h-2.03z"/><path d="m353.69 120.41.49.43h22.67l.48-.43z"/><path d="m46.6 63.92h2.03v.43h-2.03z"/><path d="m46.6 62.54h2.03v.43h-2.03z"/><path d="m46.6 66.67h2.03v.43h-2.03z"/><path d="m46.6 65.3h2.03v.43h-2.03z"/><path d="m46.6 61.17h2.03v.43h-2.03z"/><path d="m49.76 57.17h3.1v.29h-3.1z"/><path d="m49.76 58.41h3.1v.43h-3.1z"/><path d="m49.76 66.67h3.1v.11h-3.1z"/><path d="m224.44 108.01v.42h2.03v-.34l.09-.08z"/><path d="m46.6 58.41h2.03v.43h-2.03z"/><path d="m46.6 57.03h2.03v.43h-2.03z"/><path d="m46.6 70.81h21.7v.43h-21.7z"/><path d="m49.76 59.79h3.1v.43h-3.1z"/><path d="m64.94 51.52h3.09v.43h-3.09z"/><path d="m46.6 72.19h21.7v.43h-21.7z"/><path d="m46.6 68.05h21.7v.43h-21.7z"/><path d="m46.6 69.43h21.7v.43h-21.7z"/><path d="m46.6 73.57h21.7v.42h-21.7z"/><path d="m64.94 54.28h3.09v.43h-3.09z"/><path d="m64.94 52.9h3.09v.43h-3.09z"/><path d="m46.6 56.08h2.02v-.05h4.24 10.93v-.37h-17.62l.43.37z"/><path d="m45.09 54.7h18.7v-.42h-19.18z"/><path d="m46.6 59.79h2.03v.43h-2.03z"/><path d="m70.25 119.03-.45.43h5.53l.33-.3v-.13z"/><path d="m46.6 36.37h21.7v.43h-21.7z"/><path d="m49.76 39.13h3.1v.42h-3.1z"/><path d="m46.6 34.99h21.7v.43h-21.7z"/><path d="m49.76 61.17h3.1v.43h-3.1z"/><path d="m49.76 40.5h3.1v.43h-3.1z"/><path d="m180.48 103.88h-2.51l.29.26.19.17h2.51z"/><path d="m221.12 119.03-.48.43h5.43l.4-.36v-.07z"/><path d="m168.62 119.03-.5.43h5.48l.34-.3v-.13z"/><path d="m122.18 126.31h2.55l-.18-.39h-2.57z"/><path d="m171.9 108.01v.42h2.04v-.34l.09-.08z"/><path d="m113.21 108.15.15.28h2.56l-.14-.28.12-.14h-16.78l.15.14v.28h2.04v-.28h4.23 3.44z"/><path d="m49.76 63.92h3.1v.43h-3.1z"/><path d="m64.94 55.66h3.09v.38h-3.09z"/><path d="m49.76 65.3h3.1v.43h-3.1z"/><path d="m64.94 50.14h3.09v.43h-3.09z"/><path d="m49.76 62.54h3.1v.43h-3.1z"/><path d="m49.76 46.01h3.1v.42h-3.1z"/><path d="m49.76 44.63h3.1v.43h-3.1z"/><path d="m49.76 43.26h3.1v.43h-3.1z"/><path d="m49.76 47.39h3.1v.43h-3.1z"/><path d="m49.76 41.88h3.1v.43h-3.1z"/><path d="m368.08 63.92h2.03v.43h-2.03z"/><path d="m371.25 65.3h3.09v.43h-3.09z"/><path d="m371.25 59.79h3.09v.43h-3.09z"/><path d="m360.26 117.66h-2.5l.49.42h2.5z"/><path d="m368.08 69.43h2.03v.43h-2.03z"/><path d="m371.25 62.54h3.09v.43h-3.09z"/><path d="m371.25 63.92h3.09v.43h-3.09z"/><path d="m371.25 68.05h3.09v.43h-3.09z"/><path d="m374.34 56.03.43-.37h-2.49l-.49.42h2.55z"/><path d="m371.25 57.03h3.09v.43h-3.09z"/><path d="m371.25 69.43h3.09v.43h-3.09z"/><path d="m371.25 70.81h3.09v.43h-3.09z"/><path d="m371.25 61.17h3.09v.43h-3.09z"/><path d="m368.08 62.54h2.03v.43h-2.03z"/><path d="m46.6 37.74h2.03v.43h-2.03z"/><path d="m368.08 65.3h2.03v.43h-2.03z"/><path d="m368.08 66.67h2.03v.43h-2.03z"/><path d="m368.08 68.05h2.03v.43h-2.03z"/><path d="m368.08 59.79h2.03v.43h-2.03z"/><path d="m368.08 58.41h2.03v.43h-2.03z"/><path d="m368.08 61.17h2.03v.43h-2.03z"/><path d="m368.08 57.03h2.03v.43h-2.03z"/><path d="m371.25 58.41h3.09v.43h-3.09z"/><path d="m371.25 66.67h3.09v.43h-3.09z"/><path d="m371.25 44.63h3.09v.43h-3.09z"/><path d="m371.25 46.01h3.09v.42h-3.09z"/><path d="m371.25 43.26h3.09v.43h-3.09z"/><path d="m371.25 48.76h3.09v.43h-3.09z"/><path d="m371.25 47.39h3.09v.43h-3.09z"/><path d="m373.42 119.03-.49.43h5.48l.34-.3v-.13z"/><path d="m375.2 50.57-.5-.43h-2.49l.49.43z"/><path d="m380.93 106.63h-2.52l.49.43h2.5z"/><path d="m371.25 40.5h3.09v.43h-3.09z"/><path d="m371.25 41.88h3.09v.43h-3.09z"/><path d="m371.25 39.13h3.09v.42h-3.09z"/><path d="m355.46 113.52h3.09v.43h-3.09z"/><path d="m355.46 114.9h3.09v.43h-3.09z"/><path d="m352.29 118.08h4.23l-.5-.42h-3.73z"/><path d="m376.79 51.95-.49-.43h-2.51l.5.43z"/><path d="m352.29 116.7h2.64l-.49-.42h-2.15z"/><path d="m356.67 116.7h2.49l-.49-.42h-2.49z"/><path d="m352.29 114.9h2.03v.43h-2.03z"/><path d="m374.96 53.33h2.49l.46-.4-.03-.03h-2.5l.04.03z"/><path d="m373.57 90.53h5.12l-.48-.43h-5.14z"/><path d="m352.29 112.14h2.03v.43h-2.03z"/><path d="m352.29 113.52h2.03v.43h-2.03z"/><path d="m353.17 93.28h2.03v-.07l.42-.36h-2.45z"/><path d="m374.06 104.31-.48-.43h-16.48l.49.43z"/><path d="m376.71 95.61h1.98v.43h-1.98z"/><path d="m372.5 102.92-.48-.42h-16.46l.48.42z"/><path d="m376.71 96.98h1.98v.43h-1.98z"/><path d="m379.37 105.26h-2.51l.48.42h2.51z"/><path d="m375.14 105.26h-16.49l.48.42h16.49z"/><path d="m370.95 101.55-.29-.25h-7.07-4.22l-.21-.18h-5.14l.48.43z"/><path d="m353.17 95.61h2.03v.43h-2.03z"/><path d="m368.08 70.81h2.03v.43h-2.03z"/><path d="m353.17 98.79h3.32l-.49-.42h-2.83z"/><path d="m353.17 100.17h4.89l-.48-.43h-4.41z"/><path d="m374.68 91.48.5.42h3.51v-.42z"/><path d="m375.87 54.7.49-.42h-2.5l-.49.42z"/><path d="m366.55 54.7h5.08l.5-.42h-6.07z"/><path d="m375.26 85.96.48.43h2.51l-.48-.43z"/><path d="m376.71 94.23h1.98v.42h-1.98z"/><path d="m368.08 56.08h2.03v-.05l.43-.37h-2.9l.44.37z"/><path d="m368.08 73.57h2.03v.42h-2.03z"/><path d="m376.28 92.85.43.36v.07h1.98v-.43z"/><path d="m376.82 87.35.48.42h2.51l-.48-.42z"/><path d="m353.17 94.23h2.03v.42h-2.03z"/><path d="m380.89 88.72h-2.52l.48.43h2.51z"/><path d="m353.17 96.98h2.03v.43h-2.03z"/><path d="m359.43 96.98h-3.09v.17l.29.26h2.8z"/><path d="m356.27 87.77h19.31l-.48-.42h-18.35z"/><path d="m373.55 85.96h-15.24l-.48.43h16.19z"/><path d="m354.72 89.15h22.42l-.49-.43h-21.45z"/><path d="m359.31 99.74.48.42h2.49l-.47-.42z"/><path d="m370.92 83.64-.3-.26h-9.39l-.29.26z"/><path d="m371.25 72.19h3.09v.43h-3.09z"/><path d="m368.08 72.19h2.03v.43h-2.03z"/><path d="m359.38 85.02h13.08l-.47-.43h-12.12z"/><path d="m376.22 84.59h-2.51l.48.43h2.51z"/><path d="m372.63 83.64h2.51l-.29-.26h-2.51z"/><path d="m378.29 104.31-.48-.43h-2.51l.48.43z"/><path d="m376.73 102.92-.48-.42h-2.52l.49.42z"/><path d="m371.25 73.57h3.09v.42h-3.09z"/><path d="m372.38 101.3.29.25h2.51l-.28-.25z"/><path d="m252.78 83.64h2.54l-.15-.26h-2.39z"/><path d="m353.17 91.9h3.56l.5-.42h-4.06z"/><path d="m360.96 91.9.5-.42h-2.48l-.5.42z"/><path d="m356.34 94.23h3.09v.42h-3.09z"/><path d="m359.43 93.28v-.07l.43-.36h-2.49l-.5.43z"/><path d="m356.34 95.61h3.09v.43h-3.09z"/><path d="m360.71 98.79-.48-.42h-2.51l.5.42z"/><path d="m353.17 90.53h5.17l.49-.43h-5.19z"/><path d="m273.37 55.66h-3.02l-.15.42h3.01z"/><path d="m263.02 65.73h2.36l.15-.43h-2.35z"/><path d="m265.32 54.7h4.17l.16-.42h-4.73z"/><path d="m277.42 44.63h-.62l.16.43h.29z"/><path d="m275.44 40.92h3.33l.16-.42h-3.64z"/><path d="m276.25 47.81.15-.42h-3.02l-.16.42z"/><path d="m275.74 49.19.16-.43h-3.02l-.16.43z"/><path d="m275.23 50.57.16-.43h-3.01l-.17.43z"/><path d="m272.35 40.92h2.19l.16-.42h-2.2z"/><path d="m273.72 54.7.16-.42h-3.03l-.16.42z"/><path d="m274.23 53.33.15-.43h-3.01l-.17.43z"/><path d="m274.73 51.95.16-.43h-3.02l-.16.43z"/><path d="m265.53 51.95h4.97l.15-.43h-4.29z"/><path d="m268.86 50.23-.66.34h2.8l.16-.43h-2.27z"/><path d="m271.82 42.3h2.22l.15-.42h-2.2z"/><path d="m265.89 64.35.17-.43h-2.36l-.16.43z"/><path d="m269.25 49.19h2.26l.16-.43h-2.26z"/><path d="m263.64 52.93.38.4h5.97l.15-.43h-6.44z"/><path d="m269.76 47.81h2.26l.15-.42h-2.25z"/><path d="m271.31 43.68h2.22l.16-.42h-2.22z"/><path d="m65.31 110.76h10.35v.43h-10.35z"/><path d="m270.28 46.44h2.24l.15-.43h-2.23z"/><path d="m268.98 56.08.16-.42h-2.92l.41.42z"/><path d="m199.42 83.38h2.04v.26h-2.04z"/><path d="m291.28 72.19.16.42h2.32l-.16-.42z"/><path d="m290.75 70.81.17.43h2.33l-.16-.43z"/><path d="m294.28 73.99-.16-.42h-2.32l.15.42z"/><path d="m190.18 39.55h4.1v-.21l-.19-.21h-4.26z"/><path d="m65.31 109.39h10.35v.43h-10.35z"/><path d="m79.88 98.37h-3.1v.42h3.1z"/><path d="m65.31 108.01h10.35v.42h-10.35z"/><path d="m290.24 69.43.16.43h2.34l-.16-.43z"/><path d="m65.31 105.26h10.35v.42h-10.35z"/><path d="m65.31 106.63h10.35v.43h-10.35z"/><path d="m288.16 63.92.16.43h2.34l-.16-.43z"/><path d="m289.71 68.05.17.43h2.33l-.16-.43z"/><path d="m255.95 102.92h2.3l-.24-.42h-2.06z"/><path d="m277.75 43.68.18-.42h-1.63l.16.42z"/><path d="m275.24 43.68-.15-.42h-.19l-.15.42z"/><path d="m275.75 45.06-.15-.43h-1.2l-.16.43z"/><path d="m278.43 41.88h-2.64l.16.42h2.32z"/><path d="m264.22 62.54-.16.43h26.09l-.16-.43z"/><path d="m288.68 65.3.16.43h2.34l-.16-.43z"/><path d="m289.19 66.67.17.44h2.34l-.16-.44z"/><path d="m276.25 46.44-.16-.43h-2.2l-.16.43z"/><path d="m270.79 45.06h2.23l.16-.43h-2.23z"/><path d="m264.78 92.85h-2.92l.25.43h2.92z"/><path d="m252.78 90.53h6.45l-.24-.43h-6.21z"/><path d="m272.74 110.77v.42h2.46l-.24-.42z"/><path d="m252.78 87.77h4.89l-.25-.42h-4.64z"/><path d="m252.78 91.9h7.23l-.24-.42h-6.99z"/><path d="m252.78 89.15h5.67l-.24-.43h-5.43z"/><path d="m258.72 87.35.26.42h2.91l-.24-.42z"/><path d="m257.95 85.96.24.43h2.93l-.25-.43z"/><path d="m252.78 85.02h3.32l-.24-.43h-3.08z"/><path d="m257.17 84.59.23.43h2.93l-.24-.43z"/><path d="m252.78 86.39h4.1l-.24-.43h-3.86z"/><path d="m261.99 68.48h2.34l.17-.43h-2.35z"/><path d="m266.59 65.73h3.02l.17-.43h-3.02z"/><path d="m262.51 67.11h2.35l.16-.44h-2.35z"/><path d="m259.55 83.64-.15-.26h-2.92l.15.26z"/><path d="m265.81 94.66-.24-.43h-2.92l.24.43z"/><path d="m259.76 89.15h2.92l-.24-.43h-2.93z"/><path d="m269.73 101.55-.24-.43h-2.94l.25.43z"/><path d="m267.38 97.41-.25-.43h-2.92l.24.43z"/><path d="m266.59 96.04-.24-.43h-2.92l.24.43z"/><path d="m268.16 98.79-.24-.42h-2.93l.25.42z"/><path d="m268.95 100.17-.25-.43h-2.92l.24.43z"/><path d="m252.78 93.28h8.02l-.24-.43h-7.78z"/><path d="m272.74 108.01v.42h.9l-.24-.42z"/><path d="m272.74 107.06h.11l-.11-.21z"/><path d="m269.15 105.68h2.45v-.42h-2.7z"/><path d="m268.13 103.88.24.43h2.92l-.24-.43z"/><path d="m46.6 39.13h2.03v.42h-2.03z"/><path d="m271.6 108.43v-.42h-1.13l.25.42z"/><path d="m275.99 112.57-.24-.43h-3.01v.43z"/><path d="m268.57 68.48.16-.43h-3.02l-.15.43z"/><path d="m272.74 109.39v.43h1.68l-.24-.43z"/><path d="m269.68 106.63.25.43h1.67v-.43z"/><path d="m269.25 66.67h-3.01l-.16.44h3.01z"/><path d="m267.17 72.19h-3.02l-.15.42h3.02z"/><path d="m261.48 69.86h2.34l.16-.43h-2.35z"/><path d="m267.7 70.81h-3.02l-.17.43h3.02z"/><path d="m260.45 72.61h2.32l.17-.42h-2.33z"/><path d="m260.97 71.24h2.33l.16-.43h-2.33z"/><path d="m268.05 69.86.16-.43h-3.01l-.16.43z"/><path d="m260.54 90.53h2.92l-.23-.43h-2.93z"/><path d="m266.66 73.57h-3.02l-.16.42h3.01z"/><path d="m259.93 73.99h2.33l.17-.42h-2.34z"/><path d="m264.25 91.9-.25-.42h-2.92l.24.42z"/><path d="m267.34 102.5.24.42h2.93l-.25-.42z"/><path d="m48.61 98.37h2.04v.43h-2.04z"/><path d="m48.61 96.98h2.04v.43h-2.04z"/><path d="m48.61 99.74h2.04v.42h-2.04z"/><path d="m53.13 92.85-.49.43h2.5l.49-.43z"/><path d="m47.37 102.92h3.28v-.42h-2.8z"/><path d="m48.61 116.7h2.65l-.5-.42h-2.15z"/><path d="m48.61 95.61h2.04v.43h-2.04z"/><path d="m48.61 91.9h3.89l.49-.42h-4.38z"/><path d="m57.22 91.48h-2.5l-.49.42h2.5z"/><path d="m48.61 94.23h2.04v.42h-2.04z"/><path d="m45.81 104.31h4.84v-.43h-4.35z"/><path d="m48.61 101.12h2.04v.42h-2.04z"/><path d="m48.61 110.76h2.04v.43h-2.04z"/><path d="m48.61 109.39h2.04v.43h-2.04z"/><path d="m51.78 103.88h3.09v.43h-3.09z"/><path d="m48.61 114.9h2.04v.43h-2.04z"/><path d="m48.61 113.52h2.04v.43h-2.04z"/><path d="m48.61 112.14h2.04v.43h-2.04z"/><path d="m51.78 109.39h3.09v.43h-3.09z"/><path d="m51.78 105.26h3.09v.42h-3.09z"/><path d="m51.78 106.63h3.09v.43h-3.09z"/><path d="m51.78 108.01h3.09v.42h-3.09z"/><path d="m48.61 93.28h2.3l.49-.43h-2.79z"/><path d="m51.78 112.14h3.09v.43h-3.09z"/><path d="m51.78 102.5h3.09v.42h-3.09z"/><path d="m46.6 47.39h2.03v.43h-2.03z"/><path d="m43.53 53.33h20.26v-.43h-20.73z"/><path d="m44.08 51.95h19.71v-.43h-19.22z"/><path d="m46.6 48.76h2.03v.43h-2.03z"/><path d="m46.6 40.5h2.03v.43h-2.03z"/><path d="m46.6 41.88h2.03v.43h-2.03z"/><path d="m46.6 43.26h2.03v.43h-2.03z"/><path d="m46.6 46.01h2.03v.42h-2.03z"/><path d="m46.6 44.63h2.03v.43h-2.03z"/><path d="m45.66 50.57h18.13v-.43h-17.63z"/><path d="m51.78 98.37h3.09v.43h-3.09z"/><path d="m51.78 110.76h3.09v.43h-3.09z"/><path d="m51.78 101.12h3.09v.42h-3.09z"/><path d="m51.78 99.74h3.09v.42h-3.09z"/><path d="m51.78 95.61h3.09v.43h-3.09z"/><path d="m51.78 96.98h3.09v.43h-3.09z"/><path d="m51.78 113.52h3.09v.43h-3.09z"/><path d="m51.78 114.9h3.09v.43h-3.09z"/><path d="m51.78 94.23h3.09v.42h-3.09z"/><path d="m55.49 116.7-.49-.42h-2.5l.49.42z"/><path d="m53.72 85.96-.47.43h17.65l-.48-.43z"/><path d="m69.44 36.37h3.1v.43h-3.1z"/><path d="m69.44 68.05h3.1v.43h-3.1z"/><path d="m69.44 34.99h3.1v.43h-3.1z"/><path d="m69.44 69.43h3.1v.43h-3.1z"/><path d="m69.44 33.61h3.1v.43h-3.1z"/><path d="m55.28 84.59-.48.43h14.56l-.48-.43z"/><path d="m69.44 70.81h3.1v.43h-3.1z"/><path d="m56.64 83.38-.3.26h11.47l-.3-.26z"/><path d="m46.6 33.61h21.7v.43h-21.7z"/><path d="m48.61 118.08h4.23l-.49-.42h-3.74z"/><path d="m69.44 72.19h3.1v.43h-3.1z"/><path d="m71.75 83.38h-2.53l.3.26h2.52z"/><path d="m71.73 117.66-.46.42h4.39v-.42z"/><path d="m73.2 116.28-.45.42h2.91v-.42z"/><path d="m50.01 120.41.48.43h23.29l.47-.43z"/><path d="m73.62 113.52h2.04v.43h-2.04z"/><path d="m73.62 114.9h2.04v.43h-2.04z"/><path d="m53.11 123.16.48.43h17.09l.48-.43z"/><path d="m68.07 125.92h-11.87l.44.39h11z"/><path d="m51.56 121.78.48.44h20.19l.48-.44z"/><path d="m54.65 124.54.48.43h14.01l.48-.43z"/><path d="m46.6 32.24h21.7v.43h-21.7z"/><path d="m69.44 73.57h3.1v.42h-3.1z"/><path d="m73.62 95.61h1.99v.43h-1.99z"/><path d="m73.62 94.23v.43h1.97l-.01-.43z"/><path d="m73.62 112.14h2.04v.43h-2.04z"/><path d="m71.14 91.48.45.42h3.97l-.01-.42z"/><path d="m54.43 119.46-.49-.43h-5.33v.13l.34.3z"/><path d="m72.6 92.85.47.43h2.5l-.01-.43z"/><path d="m48.61 108.43h2.04v-.42h-2.13l.09.08z"/><path d="m48.61 90.53h5.48l.48-.43h-5.48z"/><path d="m56.58 117.66h-2.49l.49.42h2.49z"/><path d="m50.65 105.68v-.42h-5.31l.5.42z"/><path d="m50.65 107.06v-.43h-3.72l.5.43z"/><path d="m73.62 98.37v.42h2.04l-.02-.42z"/><path d="m73.62 96.98h2.01v.43h-2.01z"/><path d="m70.11 90.53h5.43l-.48-.43h-5.4z"/><path d="m52.19 87.35-.49.42h20.75l-.48-.42z"/><path d="m76.69 91.48.01.42h3.09l-.01-.42z"/><path d="m50.63 88.72-.47.43h23.84l-.48-.43z"/><path d="m76.67 90.1.01.41v.02h3.09l-.47-.43z"/><path d="m79.86 96.98h-3.1l.01.43h3.09z"/><path d="m76.71 92.85v.43h3.1l-.01-.43z"/><path d="m76.74 95.61.01.43h3.1l-.01-.43z"/><path d="m76.73 94.23v.43h3.1l-.01-.43z"/><path d="m308.72 103.88h3.09v.43h-3.09z"/><path d="m329.74 99.74h2.04v.42h-2.04z"/><path d="m329.74 101.12h2.04v.42h-2.04z"/><path d="m329.74 98.37h2.04v.43h-2.04z"/><path d="m329.74 96.98h2.04v.43h-2.04z"/><path d="m329.74 95.61h2.04v.43h-2.04z"/><path d="m329.74 110.76h2.04v.43h-2.04z"/><path d="m329.74 108.01h2.04v.42h-2.04z"/><path d="m329.74 109.39h2.04v.43h-2.04z"/><path d="m284.13 43.68h3.01l-.16-.42h-3.01z"/><path d="m329.74 105.26h2.04v.42h-2.04z"/><path d="m329.74 106.63h2.04v.43h-2.04z"/><path d="m329.74 102.5h2.04v.42h-2.04z"/><path d="m333.26 69.43.24.43h4.51v-.43z"/><path d="m332.49 68.05.23.43h5.29v-.43z"/><path d="m334.04 70.81.24.43h3.73v-.43z"/><path d="m331.72 66.67.23.44h6.06v-.44z"/><path d="m330.94 65.3.23.43h6.84v-.43z"/><path d="m330.16 63.92.23.43h7.62v-.43z"/><path d="m327.37 91.48.49.42h3.91v-.42z"/><path d="m328.98 92.85.49.43h2.3v-.43z"/><path d="m333.98 88.72h-2.52l.48.43h2.52z"/><path d="m334.81 72.19.24.42h2.96v-.42z"/><path d="m329.74 94.23h2.04v.42h-2.04z"/><path d="m335.59 73.57.25.42h2.17v-.42z"/><path d="m311.78 39.13v.42h7.08l-.25-.42z"/><path d="m311.78 37.74v.43h6.29l-.25-.43z"/><path d="m311.78 36.37v.42h5.51l-.25-.42z"/><path d="m311.78 34.99v.43h4.72l-.24-.43z"/><path d="m329.74 112.14h2.04v.43h-2.04z"/><path d="m320.07 46.01.24.43h2.46l-.24-.43z"/><path d="m319.29 44.63.23.43h2.46l-.24-.43z"/><path d="m311.78 32.24v.42h3.16l-.25-.42z"/><path d="m318.51 43.26.25.42h2.44l-.24-.42z"/><path d="m311.78 40.5v.42h7.85l-.24-.42z"/><path d="m311.78 41.88v.42h8.64l-.24-.42z"/><path d="m311.78 33.61v.43h3.93l-.23-.43z"/><path d="m327.99 117.66-.52.42h4.3v-.42z"/><path d="m329.62 116.28-.51.42h2.66v-.42z"/><path d="m329.74 113.52h2.04v.43h-2.04z"/><path d="m329.74 114.9h2.04v.43h-2.04z"/><path d="m305.55 120.41v.43h24.27l.49-.43z"/><path d="m305.55 123.16v.43h21.18l.47-.43z"/><path d="m305.55 121.78v.44h22.72l.48-.44z"/><path d="m305.55 124.54v.43h19.62l.48-.43z"/><path d="m324.1 125.92h-18.55v.33h18.18z"/><path d="m324.03 83.64-.3-.26h-18.18v.26z"/><path d="m294.98 72.61h3.02l-.17-.42h-3.01z"/><path d="m291.36 62.97h3.02l-.16-.43h-3.02z"/><path d="m289.81 58.84h3.01l-.15-.43h-3.02z"/><path d="m290.85 61.59h3.02l-.16-.42h-3.03z"/><path d="m292.4 65.73h3.01l-.16-.43h-3.01z"/><path d="m290.33 60.22h3.02l-.17-.43h-3.02z"/><path d="m291.88 64.35h3.01l-.16-.43h-3.01z"/><path d="m294.47 71.24h3.01l-.16-.43h-3.02z"/><path d="m320.85 47.39.24.42h2.46l-.25-.42z"/><path d="m292.91 67.11h3.02l-.16-.44h-3.02z"/><path d="m293.94 69.86h3.02l-.15-.43h-3.02z"/><path d="m293.43 68.48h3.01l-.15-.43h-3.01z"/><path d="m288.78 56.08h3.02l-.17-.42h-3.01z"/><path d="m289.29 57.46h3.02l-.16-.43h-3.01z"/><path d="m285.68 47.81h3.01l-.16-.42h-3.02z"/><path d="m329.38 62.54.24.43h8.39v-.43z"/><path d="m286.71 50.57h3.02l-.16-.43h-3.02z"/><path d="m284.64 45.06h3.01l-.15-.43h-3.02z"/><path d="m286.19 49.19h3.03l-.17-.43h-3.02z"/><path d="m295.45 73.85.05.14h3.01l-.15-.42h-3.02z"/><path d="m288.26 54.7h3.02l-.16-.42h-3.01z"/><path d="m287.23 51.95h3.01l-.16-.43h-3.01z"/><path d="m287.75 53.33h3.01l-.16-.43h-3.02z"/><path d="m285.15 46.44h3.03l-.16-.43h-3.02z"/><path d="m324.86 47.81h2.92l-.25-.42h-2.92z"/><path d="m340.64 50.57h2.51l-.48-.43h-2.51z"/><path d="m327.2 51.95h2.93l-.24-.43h-2.93z"/><path d="m325.63 49.19h2.93l-.24-.43h-2.92z"/><path d="m326.42 50.57h2.93l-.24-.43h-2.93z"/><path d="m339.14 32.24h3.09v.43h-3.09z"/><path d="m335.98 54.28v.42h3.56l.49-.42z"/><path d="m335.98 59.79h2.03v.43h-2.03z"/><path d="m335.98 61.17h2.03v.43h-2.03z"/><path d="m316.24 32.66h2.93l-.24-.42h-2.93z"/><path d="m335.98 58.41h2.03v.43h-2.03z"/><path d="m335.98 57.03h2.03v.43h-2.03z"/><path d="m318.59 36.79h2.93l-.24-.42h-2.92z"/><path d="m319.38 38.17h2.93l-.26-.43h-2.92z"/><path d="m320.16 39.55h2.93l-.24-.42h-2.93z"/><path d="m317.03 34.04h2.92l-.24-.43h-2.92z"/><path d="m317.81 35.42h2.92l-.24-.43h-2.92z"/><path d="m320.94 40.92h2.93l-.25-.42h-2.92z"/><path d="m322.5 43.68h2.93l-.24-.42h-2.92z"/><path d="m324.08 46.44h2.92l-.25-.43h-2.92z"/><path d="m323.29 45.06h2.92l-.24-.43h-2.92z"/><path d="m321.72 42.3h2.93l-.25-.42h-2.92z"/><path d="m329.74 103.88h2.04v.43h-2.04z"/><path d="m311.78 48.76h2.04v.43h-2.04z"/><path d="m321.62 48.76.23.43h2.48l-.24-.43z"/><path d="m310.88 50.57h2.94v-.43h-2.46z"/><path d="m309.32 51.95h4.5v-.43h-4.02z"/><path d="m308.21 52.93.46.4h5.15v-.43h-5.58z"/><path d="m318.05 46.01h-2.22l.24.43h1.98z"/><path d="m318.05 43.26h-3.77l.24.42h3.53z"/><path d="m318.05 44.63h-3l.25.43h2.75z"/><path d="m311.78 44.63h2.04v.43h-2.04z"/><path d="m311.78 43.26h2.04v.43h-2.04z"/><path d="m311.78 46.01h2.04v.42h-2.04z"/><path d="m311.78 72.19h2.04v.43h-2.04z"/><path d="m311.78 63.92h2.04v.43h-2.04z"/><path d="m311.78 65.3h2.04v.43h-2.04z"/><path d="m311.78 62.54h2.04v.43h-2.04z"/><path d="m311.78 73.57h2.04v.42h-2.04z"/><path d="m311.78 59.79h2.04v.43h-2.04z"/><path d="m311.78 61.17h2.04v.43h-2.04z"/><path d="m311.78 66.67h2.04v.43h-2.04z"/><path d="m311.78 70.81h2.04v.43h-2.04z"/><path d="m311.78 69.43h2.04v.43h-2.04z"/><path d="m311.78 68.05h2.04v.43h-2.04z"/><path d="m305.55 92.85h2.03v.43h-2.03z"/><path d="m305.55 96.98h2.03v.43h-2.03z"/><path d="m305.55 95.61h2.03v.43h-2.03z"/><path d="m305.55 98.37h2.03v.43h-2.03z"/><path d="m305.55 94.23h2.03v.42h-2.03z"/><path d="m305.55 99.74h2.03v.42h-2.03z"/><path d="m305.55 101.12h2.03v.42h-2.03z"/><path d="m311.78 58.41h2.04v.43h-2.04z"/><path d="m305.55 117.65h2.03v.42h-2.03z"/><path d="m308.72 117.65h3.09v.42h-3.09z"/><path d="m305.55 91.48h2.03v.43h-2.03z"/><path d="m305.55 90.1h2.03v.43h-2.03z"/><path d="m314.96 50.57h2.13l-.24-.43h-1.89z"/><path d="m329.75 88.72h-24.2v.43h24.69z"/><path d="m304.29 102.92h3.3v-.42h-2.81z"/><path d="m305.55 87.35v.42h23.13l-.48-.42z"/><path d="m314.96 48.76v.43h1.36l-.24-.43z"/><path d="m314.96 47.39v.42h.59l-.25-.42z"/><path d="m318.05 47.39h-1.44l.24.42h1.2z"/><path d="m302.7 104.31h4.89v-.43h-4.4z"/><path d="m302.82 105.68h4.77v-.42h-5.24z"/><path d="m305.55 108.43h2.04v-.42h-2.14l.1.08z"/><path d="m305.55 119.03h2.03v.43h-2.03z"/><path d="m311.78 47.39h2.04v.43h-2.04z"/><path d="m329.81 58.84-.24-.43h-2.52l.24.43z"/><path d="m330.59 60.22-.24-.43h-2.52l.24.43z"/><path d="m331.74 58.41v.43h2.31l-.25-.43z"/><path d="m330.09 57.03.25.43h.27v-.43z"/><path d="m334.58 59.79h-2.84v.43h3.09z"/><path d="m328.36 85.96.48.43h2.52l-.48-.43z"/><path d="m331.74 57.03v.43h1.52l-.24-.43z"/><path d="m305.55 86.39h21.58l-.48-.43h-21.1z"/><path d="m332.43 87.35h-2.52l.48.42h2.52z"/><path d="m318.05 48.76h-.66l.23.43h.43z"/><path d="m329.03 57.46-.25-.43h-2.51l.24.43z"/><path d="m325.5 55.66.23.42h2.52l-.24-.42z"/><path d="m324.19 53.33h2.49l-.24-.43h-2.49z"/><path d="m327.99 53.33h2.62v-.43h-2.86z"/><path d="m335.37 61.17h-3.63v.42h3.87z"/><path d="m311.78 57.03h2.04v.43h-2.04z"/><path d="m322.39 50.14.25.43h2.48l-.25-.43z"/><path d="m331.13 61.17h-2.53l.25.42h2.53z"/><path d="m329.55 56.08h1.06v-.42h-1.3z"/><path d="m331.74 55.66v.42h.73l-.24-.42z"/><path d="m328.77 54.7h1.84v-.42h-2.08z"/><path d="m324.97 54.7h2.49l-.24-.42h-2.49z"/><path d="m323.17 51.52.24.43h2.48l-.24-.43z"/><path d="m314.96 62.54h3.09v.43h-3.09z"/><path d="m314.96 66.67h3.09v.43h-3.09z"/><path d="m314.96 69.43h3.09v.43h-3.09z"/><path d="m314.96 63.92h3.09v.43h-3.09z"/><path d="m314.96 65.3h3.09v.43h-3.09z"/><path d="m314.96 68.05h3.09v.43h-3.09z"/><path d="m314.96 70.81h3.09v.43h-3.09z"/><path d="m311.35 55.66.43.37v.05h2.04v-.42z"/><path d="m309.77 54.28.49.42h3.56v-.42z"/><path d="m314.96 72.19h3.09v.43h-3.09z"/><path d="m305.55 85.02h20.03l-.48-.43h-19.55z"/><path d="m314.96 73.57h3.09v.42h-3.09z"/><path d="m314.96 52.9h3.09v.43h-3.09z"/><path d="m314.96 51.52v.43h2.91l-.24-.43z"/><path d="m314.96 61.17h3.09v.43h-3.09z"/><path d="m314.96 54.28h3.09v.43h-3.09z"/><path d="m328.26 83.64-.3-.26h-2.51l.28.26z"/><path d="m329.81 85.02-.48-.43h-2.52l.48.43z"/><path d="m314.96 55.66h3.09v.43h-3.09z"/><path d="m314.96 58.41h3.09v.43h-3.09z"/><path d="m314.96 59.79h3.09v.43h-3.09z"/><path d="m314.96 57.03h3.09v.43h-3.09z"/><path d="m328.44 123.59h2.52l.48-.43h-2.52z"/><path d="m329.98 122.22h2.53l.48-.44h-2.52z"/><path d="m281.93 107.06h2.5l.49-.43h-2.5z"/><path d="m283.52 105.68h2.49l.49-.42h-2.49z"/><path d="m326.89 124.97h2.52l.48-.43h-2.52z"/><path d="m305.55 116.27h2.03v.43h-2.03z"/><path d="m280.14 114.9h3.1v.43h-3.1z"/><path d="m280.34 108.43h2.9v-.34l.09-.08h-2.49z"/><path d="m280.14 113.52h3.1v.43h-3.1z"/><path d="m332.91 106.63h3.1v.43h-3.1z"/><path d="m280.14 110.76h3.1v.43h-3.1z"/><path d="m280.14 109.39h3.1v.43h-3.1z"/><path d="m325.45 126.25h2.51l.38-.33h-2.53z"/><path d="m332.91 113.52h3.1v.43h-3.1z"/><path d="m332.91 112.14h3.1v.43h-3.1z"/><path d="m332.91 110.76h3.1v.43h-3.1z"/><path d="m332.91 109.39h3.1v.43h-3.1z"/><path d="m332.91 108.01h3.1v.42h-3.1z"/><path d="m332.91 119.1v.36h2.7l.4-.36v-.07h-3.1z"/><path d="m331.54 120.84h2.52l.48-.43h-2.52z"/><path d="m332.91 117.65h3.1v.42h-3.1z"/><path d="m332.91 114.9h3.1v.43h-3.1z"/><path d="m332.91 116.27h3.1v.43h-3.1z"/><path d="m280.14 112.14h3.1v.43h-3.1z"/><path d="m280.14 116.27h3.1v.43h-3.1z"/><path d="m255.95 113.52h3.1v.43h-3.1z"/><path d="m255.95 110.76h3.1v.43h-3.1z"/><path d="m255.95 112.14h3.1v.43h-3.1z"/><path d="m255.95 116.27h3.1v.43h-3.1z"/><path d="m255.95 123.16h3.1v.43h-3.1z"/><path d="m255.95 121.78h3.1v.43h-3.1z"/><path d="m255.95 109.39h3.1v.43h-3.1z"/><path d="m255.95 119.03h3.1v.43h-3.1z"/><path d="m255.95 120.41h3.1v.43h-3.1z"/><path d="m255.95 117.65h3.1v.42h-3.1z"/><path d="m255.95 114.9h3.1v.43h-3.1z"/><path d="m255.95 108.01h3.1v.42h-3.1z"/><path d="m280.14 123.16h3.1v.43h-3.1z"/><path d="m280.14 120.41h3.1v.43h-3.1z"/><path d="m280.14 119.03h3.1v.43h-3.1z"/><path d="m280.14 117.65h3.1v.42h-3.1z"/><path d="m280.14 121.78h3.1v.43h-3.1z"/><path d="m255.95 106.63h3.1v.43h-3.1z"/><path d="m255.95 105.26h3.1v.42h-3.1z"/><path d="m255.95 124.54h3.1v.43h-3.1z"/><path d="m280.14 125.92h3.1v.39h-3.1z"/><path d="m280.14 124.54h3.1v.43h-3.1z"/><path d="m377.01 122.22h2.52l.48-.44h-2.51z"/><path d="m379.88 117.65h3.1v.42h-3.1z"/><path d="m379.88 119.16v.3h2.76l.34-.3v-.13h-3.1z"/><path d="m378.57 120.84h2.52l.48-.43h-2.52z"/><path d="m373.9 124.97h2.52l.48-.43h-2.52z"/><path d="m375.45 123.59h2.52l.49-.43h-2.52z"/><path d="m339.68 56.08h2.56v-.05l.44-.37h-2.5z"/><path d="m372.39 126.31h2.52l.44-.39h-2.52z"/><path d="m339.14 57.03h3.09v.43h-3.09z"/><path d="m343.27 52.9.04.03-.45.4h2.49l.47-.4-.03-.03z"/><path d="m341.27 54.7h2.5l.49-.42h-2.49z"/><path d="m383.72 32.24h3.1v.43h-3.1z"/><path d="m383.72 34.99h3.1v.43h-3.1z"/><path d="m383.72 36.37h3.1v.43h-3.1z"/><path d="m332.91 105.26h3.1v.42h-3.1z"/><path d="m379.88 109.39h3.1v.43h-3.1z"/><path d="m383.72 33.61h3.1v.43h-3.1z"/><path d="m379.88 116.27h3.1v.43h-3.1z"/><path d="m379.88 113.52h3.1v.43h-3.1z"/><path d="m379.88 110.76h3.1v.43h-3.1z"/><path d="m379.88 114.9h3.1v.43h-3.1z"/><path d="m379.88 112.14h3.1v.43h-3.1z"/><path d="m339.14 58.41h3.09v.43h-3.09z"/><path d="m332.91 95.61h3.1v.43h-3.1z"/><path d="m332.91 94.23h3.1v.42h-3.1z"/><path d="m332.91 90.1v.43h3.1l-.48-.43z"/><path d="m332.91 96.98h3.1v.43h-3.1z"/><path d="m332.91 91.48h3.1v.43h-3.1z"/><path d="m332.91 92.85h3.1v.43h-3.1z"/><path d="m332.91 103.88h3.1v.43h-3.1z"/><path d="m332.91 98.37h3.1v.43h-3.1z"/><path d="m332.91 102.5h3.1v.42h-3.1z"/><path d="m332.91 101.12h3.1v.42h-3.1z"/><path d="m332.91 99.74h3.1v.42h-3.1z"/><path d="m339.14 63.92h3.09v.43h-3.09z"/><path d="m339.14 66.67h3.09v.43h-3.09z"/><path d="m339.14 59.79h3.09v.43h-3.09z"/><path d="m339.14 73.57h3.09v.42h-3.09z"/><path d="m339.14 62.54h3.09v.43h-3.09z"/><path d="m339.14 61.17h3.09v.43h-3.09z"/><path d="m339.14 65.3h3.09v.43h-3.09z"/><path d="m339.14 68.05h3.09v.43h-3.09z"/><path d="m339.14 70.81h3.09v.43h-3.09z"/><path d="m339.14 72.19h3.09v.43h-3.09z"/><path d="m339.14 69.43h3.09v.43h-3.09z"/><path d="m178.44 105.68h2.5l.49-.42h-2.5z"/><path d="m72.39 123.59h2.53l.47-.43h-2.52z"/><path d="m69.34 126.31h2.52l.44-.39h-2.52z"/><path d="m70.85 124.97h2.51l.49-.43h-2.53z"/><path d="m76.79 119.16v.3h2.77l.33-.3v-.13h-3.1z"/><path d="m75.48 120.84h2.53l.47-.43h-2.51z"/><path d="m73.94 122.22h2.52l.48-.44h-2.52z"/><path d="m74.16 87.77h2.52l-.48-.42h-2.51z"/><path d="m69.44 32.24h3.1v.43h-3.1z"/><path d="m75.71 89.15h2.52l-.48-.43h-2.52z"/><path d="m72.62 86.39h2.51l-.47-.43h-2.53z"/><path d="m90.76 32.24h3.1v.43h-3.1z"/><path d="m71.07 85.02h2.52l-.48-.43h-2.52z"/><path d="m76.79 108.01h3.1v.42h-3.1z"/><path d="m76.79 110.76h3.1v.43h-3.1z"/><path d="m76.79 117.65h3.1v.42h-3.1z"/><path d="m76.79 106.63h3.1v.43h-3.1z"/><path d="m76.79 105.26h3.1v.42h-3.1z"/><path d="m76.79 109.39h3.1v.43h-3.1z"/><path d="m76.79 114.9h3.1v.43h-3.1z"/><path d="m76.79 116.27h3.1v.43h-3.1z"/><path d="m76.79 113.52h3.1v.43h-3.1z"/><path d="m102.45 125.92h3.09v.39h-3.09z"/><path d="m255.95 125.92h3.1v.39h-3.1z"/><path d="m246.38 53.33h2.52l.48-.43h-2.52z"/><path d="m279.98 32.66h3.02l-.15-.42h-3.02z"/><path d="m280.51 34.04h3.01l-.16-.43h-3.01z"/><path d="m245.86 51.95h2.49l-.49-.43h-2.49z"/><path d="m244.27 50.57h2.5l-.49-.43h-2.5z"/><path d="m282.57 39.55h3.02l-.16-.42h-3.01z"/><path d="m242.75 32.24h3.09v.43h-3.09z"/><path d="m281.03 35.42h3.01l-.15-.43h-3.02z"/><path d="m283.09 40.92h3.02l-.17-.42h-3.01z"/><path d="m282.06 38.17h3.02l-.17-.43h-3.01z"/><path d="m281.54 36.79h3.02l-.16-.42h-3.02z"/><path d="m189.99 32.66h2.72l-.36-.42h-2.74z"/><path d="m191.18 34.04h2.73l-.37-.43h-2.73z"/><path d="m192.38 35.42h2.72l-.36-.43h-2.73z"/><path d="m151.39 32.24h3.09v.43h-3.09z"/><path d="m193.58 36.79h2.73l-.37-.42h-2.74z"/><path d="m110.44 68.05h3.1v.43h-3.1z"/><path d="m194.78 38.17h2.72l-.37-.43h-2.72z"/><path d="m202.59 83.38h3.1v.26h-3.1z"/><path d="m218.62 32.24h3.09v.43h-3.09z"/><path d="m203.85 116.7h2.51l-.48-.42h-2.52z"/><path d="m195.42 39.34v.21h3.1v-.21l-.19-.21h-2.91z"/><path d="m76.79 112.14h3.1v.43h-3.1z"/><path d="m221.64 124.97h2.52l.48-.43h-2.52z"/><path d="m223.17 123.59h2.53l.47-.43h-2.52z"/><path d="m220.15 126.31h2.52l.43-.39h-2.52z"/><path d="m226.24 120.84h2.53l.47-.43h-2.53z"/><path d="m224.71 122.22h2.53l.47-.44h-2.52z"/><path d="m175.07 110.76h3.09v.43h-3.09z"/><path d="m102.45 124.54h3.09v.43h-3.09z"/><path d="m175.07 109.39h3.09v.43h-3.09z"/><path d="m227.6 119.1v.36h2.71l.39-.36v-.07h-3.1z"/><path d="m175.27 108.43h2.89v-.34l.1-.08h-2.5z"/><path d="m176.86 107.06h2.49l.49-.43h-2.49z"/><path d="m227.6 114.9h3.1v.43h-3.1z"/><path d="m227.6 110.76h3.1v.43h-3.1z"/><path d="m227.6 117.65h3.1v.42h-3.1z"/><path d="m227.81 108.43h2.89v-.34l.1-.08h-2.51z"/><path d="m229.39 107.06h2.5l.49-.43h-2.5z"/><path d="m230.98 105.68h2.5l.48-.42h-2.49z"/><path d="m227.6 109.39h3.1v.43h-3.1z"/><path d="m175.07 112.14h3.09v.43h-3.09z"/><path d="m227.6 116.27h3.1v.43h-3.1z"/><path d="m227.6 113.52h3.1v.43h-3.1z"/><path d="m227.6 112.14h3.1v.43h-3.1z"/><path d="m283.61 42.3h3.02l-.17-.42h-3.01z"/><path d="m102.45 113.52h3.09v.43h-3.09z"/><path d="m102.45 114.9h3.09v.43h-3.09z"/><path d="m102.45 110.76h3.09v.43h-3.09z"/><path d="m102.45 116.27h3.09v.43h-3.09z"/><path d="m102.45 112.14h3.09v.43h-3.09z"/><path d="m102.45 121.78h3.09v.43h-3.09z"/><path d="m102.45 109.39h3.09v.43h-3.09z"/><path d="m102.45 123.16h3.09v.43h-3.09z"/><path d="m175.07 113.52h3.09v.43h-3.09z"/><path d="m102.45 120.41h3.09v.43h-3.09z"/><path d="m102.45 117.65h3.09v.42h-3.09z"/><path d="m102.45 119.03h3.09v.43h-3.09z"/><path d="m175.07 119.16v.3h2.76l.33-.3v-.13h-3.09z"/><path d="m175.07 117.65h3.09v.42h-3.09z"/><path d="m175.07 116.27h3.09v.43h-3.09z"/><path d="m173.76 120.84h2.53l.48-.43h-2.52z"/><path d="m175.07 114.9h3.09v.43h-3.09z"/><path d="m172.22 122.22h2.52l.47-.44h-2.51z"/><path d="m167.62 126.31h2.52l.44-.39h-2.53z"/><path d="m125.82 125.92.18.39h2.97l-.19-.39z"/><path d="m169.13 124.97h2.52l.47-.43h-2.52z"/><path d="m170.67 123.59h2.52l.48-.43h-2.52z"/><path d="m239.58 34.99h2.03v.43h-2.03z"/><path d="m126.98 99.74h-3.1v.33.1h3.01l.09-.1z"/><path d="m123.33 104.31.36-.43h-2.72l-.37.43z"/><path d="m117.29 101.55h4.18l.37-.43h-4.2z"/><path d="m96.49 105.68h21.42l.36-.42h-22.27z"/><path d="m122.51 105.26h-2.73l-.37.42h2.73z"/><path d="m122.19 112.57-.21-.43h-2.96l.2.43z"/><path d="m124.88 102.5h-2.73l-.37.42h2.73z"/><path d="m119.54 98.79h3.21v-.42h-2.86z"/><path d="m118.41 100.17h4.25l.09-.1v-.33h-3.98z"/><path d="m122.97 101.55h2.74l.37-.43h-2.74z"/><path d="m123.31 120.84h2.96l-.21-.43h-2.96z"/><path d="m96.49 104.31h22.6l.37-.43h-22.48z"/><path d="m118.8 119.46h2.55l-.2-.43h-2.57z"/><path d="m125.59 119.46-.21-.43h-2.96l.2.43z"/><path d="m122.04 120.84-.22-.43h-2.56l.22.43z"/><path d="m118.34 110.77.21.42h2.96l-.21-.42z"/><path d="m305.55 114.9h2.03v.43h-2.03z"/><path d="m126.74 121.78h-2.97l.21.44h2.96z"/><path d="m124.91 118.08-.21-.42h-2.97l.22.42z"/><path d="m122.87 113.95-.21-.43h-2.97l.22.43z"/><path d="m123.55 115.32-.21-.42h-2.96l.21.42z"/><path d="m124.23 116.7-.21-.42h-2.96l.2.42z"/><path d="m120.71 97.36-.05.05h2.09v-.43h-2.04z"/><path d="m102.45 96.98h3.09v.43h-3.09z"/><path d="m102.45 94.23h3.09v.42h-3.09z"/><path d="m102.45 95.61h3.09v.43h-3.09z"/><path d="m102.45 98.37h3.09v.43h-3.09z"/><path d="m102.45 99.74h3.09v.42h-3.09z"/><path d="m120.01 108.15.12-.14h-2.73l-.27.31.06.11h2.96z"/><path d="m102.45 92.85h3.09v.43h-3.09z"/><path d="m128.53 32.24h21.71v.43h-21.71z"/><path d="m128.53 33.61h21.71v.43h-21.71z"/><path d="m102.45 91.48h3.09v.43h-3.09z"/><path d="m99.27 90.1h2.04v.43h-2.04z"/><path d="m99.27 96.98h2.04v.43h-2.04z"/><path d="m99.27 99.74h2.04v.42h-2.04z"/><path d="m99.27 101.12h2.04v.42h-2.04z"/><path d="m120.71 95.61h2.04v.43h-2.04z"/><path d="m99.27 98.37h2.04v.43h-2.04z"/><path d="m98.08 102.92h22.2l.37-.42h-22.08z"/><path d="m99.27 95.61h2.04v.43h-2.04z"/><path d="m120.71 94.23h2.04v.42h-2.04z"/><path d="m99.27 92.85h2.04v.43h-2.04z"/><path d="m99.27 94.23h2.04v.42h-2.04z"/><path d="m99.27 91.48h2.04v.43h-2.04z"/><path d="m87.59 59.79h2.03v.43h-2.03z"/><path d="m121.89 88.72.37.43h2.73l-.37-.43z"/><path d="m120.69 87.35.38.42h2.73l-.37-.42z"/><path d="m117.5 83.64h2.74l-.23-.26h-2.73z"/><path d="m99.27 83.64h16.73l-.22-.26h-16.51z"/><path d="m87.59 66.67h2.03v.43h-2.03z"/><path d="m127.42 123.16h-2.97l.22.43h2.96z"/><path d="m123.86 124.54h-2.56l.22.43h2.56z"/><path d="m120.62 123.16.22.43h2.55l-.21-.43z"/><path d="m123.08 90.1.36.43h2.73l-.37-.43z"/><path d="m123.88 91.48h3.09v.43h-3.09z"/><path d="m87.59 73.57h21.71v.42h-21.71z"/><path d="m87.59 56.08h2.03v-.42h-2.46l.43.37z"/><path d="m87.59 62.54h2.03v.43h-2.03z"/><path d="m123.88 98.37h3.09v.43h-3.09z"/><path d="m85.56 54.28.5.42h3.56v-.42z"/><path d="m87.59 63.92h2.03v.43h-2.03z"/><path d="m87.59 61.17h2.03v.43h-2.03z"/><path d="m110.44 72.19h3.1v.43h-3.1z"/><path d="m110.44 73.57h3.1v.42h-3.1z"/><path d="m87.59 72.19h21.71v.43h-21.71z"/><path d="m110.44 70.81h3.1v.43h-3.1z"/><path d="m87.59 70.81h21.71v.43h-21.71z"/><path d="m120.67 118.08-.21-.42h-2.55l.21.42z"/><path d="m117.4 90.1.36.43h4.18l-.37-.43z"/><path d="m118.56 91.48.35.42h3.84v-.42z"/><path d="m99.27 88.72v.43h21.49l-.37-.43z"/><path d="m99.27 87.35v.42h20.29l-.37-.42z"/><path d="m99.27 85.96v.43h19.11l-.37-.43z"/><path d="m123.88 96.98h3.09v.43h-3.09z"/><path d="m123.88 95.61h3.09v.43h-3.09z"/><path d="m122.24 85.96h-2.72l.36.43h2.73z"/><path d="m123.88 94.23h3.09v.42h-3.09z"/><path d="m120 116.7-.22-.42h-2.55l.21.42z"/><path d="m120.07 93.28h2.68v-.43h-3.04z"/><path d="m123.88 92.85h3.09v.43h-3.09z"/><path d="m117.28 111.19-.21-.42h-2.56l.21.42z"/><path d="m118.32 84.59.37.43h2.73l-.36-.43z"/><path d="m114.04 109.82h2.56l-.22-.43h-2.56z"/><path d="m119.31 115.32-.2-.42h-2.56l.2.42z"/><path d="m118.64 113.95-.21-.43h-2.57l.22.43z"/><path d="m117.96 112.57-.21-.43h-2.56l.21.43z"/><path d="m99.27 85.02h17.92l-.37-.43h-17.55z"/><path d="m120.83 109.82-.21-.43h-2.96l.21.43z"/><path d="m117.08 106.63h-19.52l.49.43h18.67z"/><path d="m121.31 106.63h-2.72l-.37.43h2.73z"/><path d="m122.72 122.22-.21-.44h-2.56l.21.44z"/><path d="m215.44 48.76h2.03v.43h-2.03z"/><path d="m215.44 68.05h2.03v.43h-2.03z"/><path d="m239.58 40.5h2.03v.43h-2.03z"/><path d="m239.58 37.74h2.03v.43h-2.03z"/><path d="m170.75 32.24v.42h17.73l-.37-.42z"/><path d="m239.58 36.37h2.03v.43h-2.03z"/><path d="m215.44 47.39h2.03v.43h-2.03z"/><path d="m215.44 41.88h2.03v.43h-2.03z"/><path d="m215.44 43.26h2.03v.43h-2.03z"/><path d="m215.44 40.5h2.03v.43h-2.03z"/><path d="m215.44 46.01h2.03v.42h-2.03z"/><path d="m215.44 44.63h2.03v.43h-2.03z"/><path d="m239.58 41.88h2.03v.43h-2.03z"/><path d="m242.75 48.76h3.09v.43h-3.09z"/><path d="m239.58 48.76h2.03v.43h-2.03z"/><path d="m242.75 46.01h3.09v.42h-3.09z"/><path d="m242.75 44.63h3.09v.43h-3.09z"/><path d="m242.75 47.39h3.09v.43h-3.09z"/><path d="m239.58 43.26h2.03v.43h-2.03z"/><path d="m239.58 44.63h2.03v.43h-2.03z"/><path d="m239.58 47.39h2.03v.43h-2.03z"/><path d="m239.58 46.01h2.03v.42h-2.03z"/><path d="m239.58 39.13h2.03v.42h-2.03z"/><path d="m215.01 50.14-.5.43h28.02l-.49-.43z"/><path d="m213.42 51.52-.5.43h31.21l-.5-.43z"/><path d="m218.62 44.63h3.09v.43h-3.09z"/><path d="m211.9 52.9.48.43h32.28l.49-.43z"/><path d="m218.62 47.39h3.09v.43h-3.09z"/><path d="m218.62 46.01h3.09v.42h-3.09z"/><path d="m215.44 70.81h2.03v.43h-2.03z"/><path d="m215.44 69.43h2.03v.43h-2.03z"/><path d="m243.59 54.28h-30.13l.48.42h29.17z"/><path d="m215.44 39.13h2.03v.42h-2.03z"/><path d="m215.44 72.19h2.03v.43h-2.03z"/><path d="m215.44 73.57h2.03v.42h-2.03z"/><path d="m218.62 43.26h3.09v.43h-3.09z"/><path d="m218.62 36.37h3.09v.43h-3.09z"/><path d="m215.44 34.99h2.03v.43h-2.03z"/><path d="m215.44 37.74h2.03v.43h-2.03z"/><path d="m215.44 36.37h2.03v.43h-2.03z"/><path d="m218.62 34.99h3.09v.43h-3.09z"/><path d="m218.62 40.5h3.09v.43h-3.09z"/><path d="m218.62 41.88h3.09v.43h-3.09z"/><path d="m218.62 37.74h3.09v.43h-3.09z"/><path d="m218.62 39.13h3.09v.42h-3.09z"/><path d="m242.75 43.26h3.09v.43h-3.09z"/><path d="m202.59 95.61h3.1v.43h-3.1z"/><path d="m202.59 94.23h3.1v.42h-3.1z"/><path d="m202.59 92.85h3.1v.43h-3.1z"/><path d="m202.59 91.48h3.1v.43h-3.1z"/><path d="m202.59 90.1h3.1v.43h-3.1z"/><path d="m202.59 96.98h3.1v.43h-3.1z"/><path d="m202.59 101.12h3.1v.42h-3.1z"/><path d="m202.59 102.5h3.1v.42h-3.1z"/><path d="m242.75 41.88h3.09v.43h-3.09z"/><path d="m202.59 98.37h3.1v.43h-3.1z"/><path d="m202.59 88.72h3.1v.43h-3.1z"/><path d="m202.59 84.59h3.1v.43h-3.1z"/><path d="m170.75 36.37v.42h21.32l-.37-.42z"/><path d="m191.31 40.92h2.97v-.42h-3.31z"/><path d="m188.69 37.74.35.43h4.23l-.37-.43z"/><path d="m170.75 33.61v.43h18.93l-.37-.43z"/><path d="m170.75 34.99v.43h20.13l-.38-.43z"/><path d="m195.42 40.5h3.1v.43h-3.1z"/><path d="m202.59 87.35h3.1v.42h-3.1z"/><path d="m202.59 85.96h3.1v.43h-3.1z"/><path d="m202.59 103.88h3.1v.43h-3.1z"/><path d="m199.42 84.59h2.04v.43h-2.04z"/><path d="m202.59 99.74h3.1v.42h-3.1z"/><path d="m239.58 32.24h2.03v.43h-2.03z"/><path d="m239.58 33.61h2.03v.43h-2.03z"/><path d="m215.44 33.61h2.03v.43h-2.03z"/><path d="m218.62 33.61h3.09v.43h-3.09z"/><path d="m242.75 33.61h3.09v.43h-3.09z"/><path d="m242.75 40.5h3.09v.43h-3.09z"/><path d="m242.75 39.13h3.09v.42h-3.09z"/><path d="m242.75 34.99h3.09v.43h-3.09z"/><path d="m215.44 32.24h2.03v.43h-2.03z"/><path d="m242.75 37.74h3.09v.43h-3.09z"/><path d="m242.75 36.37h3.09v.43h-3.09z"/><path d="m205.41 118.08h2.51l-.49-.42h-2.5z"/><path d="m202.59 109.39h3.1v.43h-3.1z"/><path d="m202.59 110.76h3.1v.43h-3.1z"/><path d="m202.59 106.63h3.1v.43h-3.1z"/><path d="m202.59 112.14h3.1v.43h-3.1z"/><path d="m202.59 108.01h3.1v.42h-3.1z"/><path d="m202.59 105.26h3.1v.42h-3.1z"/><path d="m199.42 118.08h4.27l-.48-.42h-3.79z"/><path d="m202.59 113.52h3.1v.43h-3.1z"/><path d="m199.42 116.28v.42h2.71l-.49-.42z"/><path d="m202.59 114.9h3.1v.43h-3.1z"/><path d="m151.39 33.61h3.09v.43h-3.09z"/><path d="m272.1 117.66.24.42h6.66v-.42z"/><path d="m258.8 103.88h-2.85v.43h3.08z"/><path d="m270.55 114.9.23.42h8.22v-.42z"/><path d="m335.98 37.74h2.03v.43h-2.03z"/><path d="m273.65 120.41.24.43h5.11v-.43z"/><path d="m274.42 121.78.25.44h4.33v-.44z"/><path d="m279 125.92h-2.25l.22.39h2.03z"/><path d="m276.97 113.52h2.04v.43h-2.04z"/><path d="m259.05 101.12h-.51l.25.43h.26z"/><path d="m275.98 124.54.24.43h2.78v-.43z"/><path d="m275.19 123.16.25.43h3.56v-.43z"/><path d="m272.87 119.03.24.43h5.89v-.43z"/><path d="m335.98 51.95h4.5l-.49-.43h-4.01z"/><path d="m276.97 103.88v.43h4.84l-.49-.43z"/><path d="m276.97 112.14h2.04v.43h-2.04z"/><path d="m335.98 34.99h2.03v.43h-2.03z"/><path d="m335.98 36.37h2.03v.43h-2.03z"/><path d="m335.98 50.14v.43h2.93l-.47-.43z"/><path d="m276.97 109.39h2.04v.43h-2.04z"/><path d="m276.97 110.76h2.04v.43h-2.04z"/><path d="m276.97 105.26v.42h4.81l.49-.42z"/><path d="m276.97 106.63v.43h3.22l.5-.43z"/><path d="m271.32 116.28.24.42h7.44v-.42z"/><path d="m252.78 123.16h2.04v.43h-2.04z"/><path d="m252.78 124.54h2.04v.43h-2.04z"/><path d="m250.47 103.88-.49.43h4.84v-.43z"/><path d="m252.78 120.41h2.04v.43h-2.04z"/><path d="m252.78 121.78h2.04v.43h-2.04z"/><path d="m252.78 119.03h2.04v.43h-2.04z"/><path d="m218.62 57.17h3.09v.29h-3.09z"/><path d="m224.44 103.88v.43h4.83l-.49-.43z"/><path d="m239.58 56.03v.05h2.02v-.05l.43-.37h-27.01l.42.37v.05h2.03v-.05h4.24 13.63z"/><path d="m242.75 73.57h3.09v.42h-3.09z"/><path d="m239.58 73.57h2.03v.42h-2.03z"/><path d="m252.78 125.92h2.04v.39h-2.04z"/><path d="m252.78 109.39h2.04v.43h-2.04z"/><path d="m252.78 110.76h2.04v.43h-2.04z"/><path d="m224.44 105.26v.42h4.8l.5-.42z"/><path d="m249.51 105.26.5.42h4.81v-.42z"/><path d="m251.1 106.63.49.43h3.23v-.43z"/><path d="m252.78 117.65h2.04v.42h-2.04z"/><path d="m252.78 112.14h2.04v.43h-2.04z"/><path d="m252.78 116.27h2.04v.43h-2.04z"/><path d="m252.78 114.9h2.04v.43h-2.04z"/><path d="m252.78 113.52h2.04v.43h-2.04z"/><path d="m252.69 108.01.09.08v.34h2.04v-.42z"/><path d="m304.38 107.06h3.21v-.43h-3.69z"/><path d="m308.72 99.74h3.09v.42h-3.09z"/><path d="m308.72 108.01h3.09v.42h-3.09z"/><path d="m308.72 98.37h3.09v.43h-3.09z"/><path d="m308.72 102.5h3.09v.42h-3.09z"/><path d="m308.72 105.26h3.09v.42h-3.09z"/><path d="m308.72 91.48h3.09v.43h-3.09z"/><path d="m308.72 92.85h3.09v.43h-3.09z"/><path d="m308.72 95.61h3.09v.43h-3.09z"/><path d="m308.72 94.23h3.09v.42h-3.09z"/><path d="m308.72 96.98h3.09v.43h-3.09z"/><path d="m308.72 101.12h3.09v.42h-3.09z"/><path d="m335.98 39.13h2.03v.42h-2.03z"/><path d="m305.55 109.39h2.03v.43h-2.03z"/><path d="m87.59 58.41h2.03v.43h-2.03z"/><path d="m305.55 113.52h2.03v.43h-2.03z"/><path d="m308.72 109.39h3.09v.43h-3.09z"/><path d="m305.55 112.14h2.03v.43h-2.03z"/><path d="m308.72 112.14h3.09v.43h-3.09z"/><path d="m308.72 116.27h3.09v.43h-3.09z"/><path d="m308.72 114.9h3.09v.43h-3.09z"/><path d="m308.72 113.52h3.09v.43h-3.09z"/><path d="m308.72 110.76h3.09v.43h-3.09z"/><path d="m335.98 47.39h2.03v.43h-2.03z"/><path d="m339.14 44.63h3.09v.43h-3.09z"/><path d="m335.98 48.76h2.03v.43h-2.03z"/><path d="m339.14 47.39h3.09v.43h-3.09z"/><path d="m339.14 46.01h3.09v.42h-3.09z"/><path d="m339.14 48.76h3.09v.43h-3.09z"/><path d="m335.98 46.01h2.03v.42h-2.03z"/><path d="m308.72 106.63h3.09v.43h-3.09z"/><path d="m335.98 40.5h2.03v.43h-2.03z"/><path d="m335.98 44.63h2.03v.43h-2.03z"/><path d="m335.98 43.26h2.03v.43h-2.03z"/><path d="m335.98 41.88h2.03v.43h-2.03z"/><path d="m339.14 34.99h3.09v.43h-3.09z"/><path d="m339.14 36.37h3.09v.43h-3.09z"/><path d="m339.14 33.61h3.09v.43h-3.09z"/><path d="m335.98 32.24h2.03v.43h-2.03z"/><path d="m339.14 43.26h3.09v.43h-3.09z"/><path d="m335.98 33.61h2.03v.43h-2.03z"/><path d="m339.14 37.74h3.09v.43h-3.09z"/><path d="m339.14 41.88h3.09v.43h-3.09z"/><path d="m339.14 40.5h3.09v.43h-3.09z"/><path d="m339.14 39.13h3.09v.42h-3.09z"/><path d="m305.55 110.76h2.03v.43h-2.03z"/><path d="m87.59 39.13h2.03v.42h-2.03z"/><path d="m87.59 40.5h2.03v.43h-2.03z"/><path d="m87.59 41.88h2.03v.43h-2.03z"/><path d="m87.59 44.63h2.03v.43h-2.03z"/><path d="m87.59 43.26h2.03v.43h-2.03z"/><path d="m87.59 36.37h2.03v.43h-2.03z"/><path d="m90.76 34.99h3.1v.43h-3.1z"/><path d="m90.76 36.37h3.1v.43h-3.1z"/><path d="m87.59 37.74h2.03v.43h-2.03z"/><path d="m87.59 34.99h2.03v.43h-2.03z"/><path d="m87.59 46.01h2.03v.42h-2.03z"/><path d="m87.59 68.05h21.71v.43h-21.71z"/><path d="m87.59 47.39h2.03v.43h-2.03z"/><path d="m90.76 37.74h3.1v.43h-3.1z"/><path d="m90.76 33.61h3.1v.43h-3.1z"/><path d="m110.44 69.43h3.1v.43h-3.1z"/><path d="m90.76 66.67h3.1v.17h-3.1z"/><path d="m87.59 69.43h21.71v.43h-21.71z"/><path d="m84.02 52.93.45.4h5.15v-.43h-5.57z"/><path d="m87.59 48.76h2.03v.43h-2.03z"/><path d="m86.68 50.57h2.94v-.43h-2.46z"/><path d="m85.12 51.95h4.5v-.43h-4.02z"/><path d="m87.59 65.3h2.03v.43h-2.03z"/><path d="m90.76 59.79h3.1v.43h-3.1z"/><path d="m90.76 39.13h3.1v.42h-3.1z"/><path d="m90.76 55.66h3.1v.43h-3.1z"/><path d="m90.76 54.28h3.1v.43h-3.1z"/><path d="m90.76 61.17h3.1v.43h-3.1z"/><path d="m90.76 57.03h3.1v.43h-3.1z"/><path d="m87.59 57.03h2.03v.43h-2.03z"/><path d="m90.76 62.54h3.1v.43h-3.1z"/><path d="m87.59 33.61h2.03v.43h-2.03z"/><path d="m90.76 65.3h3.1v.43h-3.1z"/><path d="m90.76 63.92h3.1v.43h-3.1z"/><path d="m90.76 58.41h3.1v.43h-3.1z"/><path d="m90.76 46.01h3.1v.42h-3.1z"/><path d="m90.76 44.63h3.1v.43h-3.1z"/><path d="m90.76 43.26h3.1v.43h-3.1z"/><path d="m224.44 106.63v.43h3.22l.49-.43z"/><path d="m90.76 41.88h3.1v.43h-3.1z"/><path d="m90.76 50.14h3.1v.43h-3.1z"/><path d="m90.76 47.39h3.1v.43h-3.1z"/><path d="m90.76 52.9h3.1v.43h-3.1z"/><path d="m90.76 51.52h3.1v.43h-3.1z"/><path d="m90.76 48.76h3.1v.43h-3.1z"/><path d="m90.76 40.5h3.1v.43h-3.1z"/><path d="m170.32 55.66.43.37v.05h16.57l.37-.42z"/><path d="m173.92 57.23h3.1v.23h-3.1z"/><path d="m205.49 124.54.47.43h13.97l.48-.43z"/><path d="m171.9 103.88v.43h4.83l-.48-.43z"/><path d="m191.92 55.66h-2.73l-.37.42h2.73z"/><path d="m218.88 125.92h-11.86l.43.39h10.99z"/><path d="m171.9 105.26v.42h4.81l.49-.42z"/><path d="m171.9 112.14h2.03v.43h-2.03z"/><path d="m171.9 110.76h2.03v.43h-2.03z"/><path d="m171.9 109.39h2.03v.43h-2.03z"/><path d="m171.9 106.63v.43h3.22l.49-.43z"/><path d="m202.42 121.78.46.44h20.12l.47-.44z"/><path d="m224.44 114.9h2.03v.43h-2.03z"/><path d="m224.44 112.14h2.03v.43h-2.03z"/><path d="m224.44 113.52h2.03v.43h-2.03z"/><path d="m224.44 110.76h2.03v.43h-2.03z"/><path d="m224.44 109.39h2.03v.43h-2.03z"/><path d="m171.9 113.52h2.03v.43h-2.03z"/><path d="m203.95 123.16.48.43h17.04l.47-.43z"/><path d="m224.25 116.28-.48.42h2.7v-.42z"/><path d="m200.88 120.41.47.43h23.18l.48-.43z"/><path d="m222.69 117.66-.48.42h4.26v-.42z"/><path d="m87.59 32.24h2.03v.43h-2.03z"/><path d="m99.27 116.27h2.04v.43h-2.04z"/><path d="m99.27 117.65h2.04v.42h-2.04z"/><path d="m99.27 113.52h2.04v.43h-2.04z"/><path d="m99.27 114.9h2.04v.43h-2.04z"/><path d="m99.27 119.03h2.04v.43h-2.04z"/><path d="m99.27 121.78h2.04v.43h-2.04z"/><path d="m99.27 125.92h2.04v.39h-2.04z"/><path d="m99.27 124.54h2.04v.43h-2.04z"/><path d="m99.27 120.41h2.04v.43h-2.04z"/><path d="m99.27 112.14h2.04v.43h-2.04z"/><path d="m99.27 123.16h2.04v.43h-2.04z"/><path d="m148.24 120.41.48.43h23.33l.49-.43z"/><path d="m151.36 123.16.49.43h17.11l.48-.43z"/><path d="m171.9 114.9h2.03v.43h-2.03z"/><path d="m99.27 110.76h2.04v.43h-2.04z"/><path d="m171.85 116.28-.5.42h2.59v-.42z"/><path d="m170.23 117.66-.49.42h4.2v-.42z"/><path d="m149.8 121.78.48.44h20.22l.48-.44z"/><path d="m99.27 109.39h2.04v.43h-2.04z"/><path d="m128.1 124.54h-2.96l.21.43h2.96z"/><path d="m166.35 125.92h-11.87l.44.39h10.99z"/><path d="m152.92 124.54.48.43h14.01l.48-.43z"/></g></svg>